<svg id="Ebene_1" data-name="Ebene 1" xmlns="http://www.w3.org/2000/svg" viewBox="0 0 1013.78 682.01"><desc>Hallianz für Vielfalt – Halle/Saale</desc>
<metadata><?xpacket begin="﻿" id="W5M0MpCehiHzreSzNTczkc9d"?>
<x:xmpmeta xmlns:x="adobe:ns:meta/" x:xmptk="Adobe XMP Core 6.0-c002 79.164488, 2020/07/10-22:06:53        ">
   <rdf:RDF xmlns:rdf="http://www.w3.org/1999/02/22-rdf-syntax-ns#">
      <rdf:Description rdf:about=""
            xmlns:photoshop="http://ns.adobe.com/photoshop/1.0/"
            xmlns:xmpRights="http://ns.adobe.com/xap/1.0/rights/"
            xmlns:dc="http://purl.org/dc/elements/1.1/"
            xmlns:Iptc4xmpCore="http://iptc.org/std/Iptc4xmpCore/1.0/xmlns/"
            xmlns:xmp="http://ns.adobe.com/xap/1.0/"
            xmlns:xmpMM="http://ns.adobe.com/xap/1.0/mm/"
            xmlns:stEvt="http://ns.adobe.com/xap/1.0/sType/ResourceEvent#">
         <photoshop:AuthorsPosition>Kommunikationsdesign. Fotografie. Illustration.</photoshop:AuthorsPosition>
         <xmpRights:Marked>True</xmpRights:Marked>
         <xmpRights:UsageTerms>
            <rdf:Alt>
               <rdf:li xml:lang="x-default">Die Nutzung des Logos/der Daten ist der Hallianz für Vielfalt Halle/Saale zeitlich und räumlich uneingeschränkt gestattet. Jegliche Veränderungen und der kommerzielle Gebrauch ist untersagt. Die Nutzung ist Dritten gestattet, sofern sie den Zwecken der Hallianz für Vielfalt Halle/Saale dient. </rdf:li>
            </rdf:Alt>
         </xmpRights:UsageTerms>
         <dc:creator>
            <rdf:Seq>
               <rdf:li>Lena Toschka – black to wild</rdf:li>
            </rdf:Seq>
         </dc:creator>
         <dc:description>
            <rdf:Alt>
               <rdf:li xml:lang="x-default">Hallianz für Vielfalt – Halle/Saale</rdf:li>
            </rdf:Alt>
         </dc:description>
         <dc:rights>
            <rdf:Alt>
               <rdf:li xml:lang="x-default">2021 by Lena Toschka – black to wild. All rights reserved.</rdf:li>
            </rdf:Alt>
         </dc:rights>
         <Iptc4xmpCore:CreatorContactInfo>
            <rdf:Description>
               <Iptc4xmpCore:CiAdrCity>Leipzig</Iptc4xmpCore:CiAdrCity>
               <Iptc4xmpCore:CiAdrCtry>Germany</Iptc4xmpCore:CiAdrCtry>
               <Iptc4xmpCore:CiEmailWork>ahoi@blacktowild.com</Iptc4xmpCore:CiEmailWork>
               <Iptc4xmpCore:CiUrlWork>www.blacktowild.com</Iptc4xmpCore:CiUrlWork>
            </rdf:Description>
         </Iptc4xmpCore:CreatorContactInfo>
         <xmp:MetadataDate>2021-01-28T14:36:47+01:00</xmp:MetadataDate>
         <xmpMM:InstanceID>xmp.iid:95418c2d-4877-410d-9177-5b9e24755cdc</xmpMM:InstanceID>
         <xmpMM:DocumentID>xmp.did:95418c2d-4877-410d-9177-5b9e24755cdc</xmpMM:DocumentID>
         <xmpMM:OriginalDocumentID>xmp.did:95418c2d-4877-410d-9177-5b9e24755cdc</xmpMM:OriginalDocumentID>
         <xmpMM:History>
            <rdf:Seq>
               <rdf:li>
                  <rdf:Description>
                     <stEvt:action>saved</stEvt:action>
                     <stEvt:instanceID>xmp.iid:95418c2d-4877-410d-9177-5b9e24755cdc</stEvt:instanceID>
                     <stEvt:when>2021-01-28T14:36:47+01:00</stEvt:when>
                     <stEvt:softwareAgent>Adobe Bridge 2021 (Macintosh)</stEvt:softwareAgent>
                     <stEvt:changed>/metadata</stEvt:changed>
                  </rdf:Description>
               </rdf:li>
            </rdf:Seq>
         </xmpMM:History>
      </rdf:Description>
   </rdf:RDF>
</x:xmpmeta>
                                                                                                    
                                                                                                    
                                                                                                    
                                                                                                    
                                                                                                    
                                                                                                    
                                                                                                    
                                                                                                    
                                                                                                    
                                                                                                    
                                                                                                    
                                                                                                    
                                                                                                    
                                                                                                    
                                                                                                    
                                                                                                    
                                                                                                    
                                                                                                    
                                                                                                    
                                                                                                    
                           
<?xpacket end="w"?></metadata>
<defs><style>.cls-1{fill:#fff;}.cls-2{fill:#009bbe;}.cls-3{fill:#fac300;}.cls-4{fill:#be0a7d;}.cls-5{fill:#20201e;}.cls-6{fill:#b0b000;}</style></defs><path class="cls-1" d="M33.43,184.57C9.9,232.94-2.3,301.84,30.6,344.39c19.4,25.09,49.74,39.38,71.26,62.68,37.4,40.49,42.4,100.61,66.68,150.09,27.45,56,81.78,91,142.89,103.34s121.87,7.15,174.14-40c43.17-39,62.93-103.92,239.83-96.31,163.56,7,219.74-10,256.28-96.69,32-75.88,38.33-223.68-84.81-261.82-66.36-20.55-70.84,8.72-161.29-46.86-49.88-30.65-142.12,9.52-198.28-2C416.58,92.1,428.68-50.13,197.65,32,131.32,55.58,70.87,107.62,33.43,184.57Z"/><path class="cls-2" d="M225.06,144.93c-6.6,14.06,10.22,18.65,19.5,29.43,20.7,24.06,7.36,66.41,11.71,92.38,3,17.72,15,35.76,34.6,35.76,41.57,0,40.62-23.43,79-33.77,35.79-9.63,43.88-31,38.26-49.37-4.24-13.87-15.48-17-33.39-23.11-24.42-8.4-14.54-68-64.84-90.09C274,90.36,235.26,123.21,225.06,144.93Z"/><path class="cls-3" d="M366.79,410.07c.2-19.07,34.37-53,44.11-76.87s-15.39-55.05-40.75-51c-24,3.78-24.8,20.24-57.16,29.42-17.58,5-25.32-2.16-35.1,5.27-8.23,6.25-2.39,24.06-14.26,60.18-13.2,40.15-36,44.19-30.33,60.82,9.67,28.34,51.78,27.35,77.84,26.09,46.12-2.25,64.37-11.78,65.46-23.91C377.39,431.32,366.65,423.77,366.79,410.07Z"/><path class="cls-4" d="M212.79,176.17c50,12,19,85,33.23,107.91,13.29,21.39,19.77,28.09,8.77,76.09-8.71,38-37.15,57.63-45,61-7,3-49,13.88-46-20s-9.77-48.91-24-52c-23-5-43.29-18.82-45-56C91.79,228.17,184,169.26,212.79,176.17Z"/><path class="cls-5" d="M466.05,301.88v-60q0-3,5.62-3H475q5.63,0,5.63,3V265H505.9V241.86q0-3,5.63-3h3.28q5.63,0,5.63,3v60q0,3-5.63,3h-3.28q-5.62,0-5.63-3V277.4H480.58v24.48q0,3-5.63,3h-3.28q-5.62,0-5.62-3"/><path class="cls-5" d="M529.81,302.81a8.19,8.19,0,0,1,.37-1.68l20.64-60.31q.75-2,5.34-2H561c3.12,0,4.91.65,5.34,2L587,301.13a5.81,5.81,0,0,1,.29,1.68c0,1.38-1.57,2.06-4.69,2.06h-4.13q-4.59,0-5.25-2l-3.75-11.44H547.35l-3.76,11.44q-.65,2-4.31,2h-3.75c-3.81,0-5.72-.68-5.72-2.06m35.63-23.72L560.1,262.4a43.32,43.32,0,0,1-1.41-6h-.37c-.06.38-.21,1.21-.42,2.49a16.63,16.63,0,0,1-1,3.52l-5.53,16.69Z"/><path class="cls-5" d="M597.56,303.8a3.93,3.93,0,0,1-.89-2.86V241.86c0-2,1.87-3,5.63-3h3.18c3.76,0,5.63,1,5.63,3V292.4h20.26a2.31,2.31,0,0,1,2.16,1.13,7.45,7.45,0,0,1,.65,3.56V300a7.43,7.43,0,0,1-.65,3.56,2.31,2.31,0,0,1-2.16,1.13h-31a3.93,3.93,0,0,1-2.86-.89"/><path class="cls-5" d="M643.79,303.8a3.93,3.93,0,0,1-.89-2.86V241.86c0-2,1.88-3,5.63-3h3.19c3.75,0,5.62,1,5.62,3V292.4H677.6a2.31,2.31,0,0,1,2.16,1.13,7.44,7.44,0,0,1,.66,3.56V300a7.41,7.41,0,0,1-.66,3.56,2.31,2.31,0,0,1-2.16,1.13h-31a4,4,0,0,1-2.86-.89"/><path class="cls-5" d="M689.29,301.88v-60q0-3.11,5.62-3.1h3.29q5.63,0,5.62,3.1v60q0,3.09-5.62,3.09h-3.29q-5.62,0-5.62-3.09"/><path class="cls-5" d="M712.92,302.81a8.19,8.19,0,0,1,.37-1.68l20.64-60.31c.49-1.31,2.28-2,5.34-2h4.88q4.68,0,5.34,2l20.63,60.31a5.81,5.81,0,0,1,.29,1.68c0,1.38-1.57,2.06-4.69,2.06h-4.13c-3.07,0-4.81-.65-5.25-2l-3.75-11.44H730.46l-3.76,11.44c-.44,1.31-1.87,2-4.31,2h-3.75c-3.81,0-5.72-.68-5.72-2.06m35.63-23.72-5.34-16.69a43.32,43.32,0,0,1-1.41-6h-.37q-.1.57-.42,2.49a16.63,16.63,0,0,1-1,3.52l-5.53,16.69Z"/><path class="cls-5" d="M779.83,301.88v-60q0-3,5.63-3h4a11.79,11.79,0,0,1,3.75.51,4.67,4.67,0,0,1,2.44,2l21.1,32.54a59.35,59.35,0,0,1,3.38,5.53l.37-.09c-.12-1.44-.19-3.57-.19-6.38V241.86q0-3,5.63-3h2.72q5.63,0,5.63,3v60q0,3-5.63,3h-3.56a11.88,11.88,0,0,1-3.76-.52,4.6,4.6,0,0,1-2.43-2l-21.57-33A56.09,56.09,0,0,1,794,263.8l-.37.1c.12,1.43.18,3.56.18,6.37v31.61q0,3-5.62,3h-2.72q-5.62,0-5.63-3"/><path class="cls-5" d="M845.8,301.55a14.74,14.74,0,0,1-1.27-5.21,2,2,0,0,1,.19-.93l31.42-44.08H850.06a2.31,2.31,0,0,1-2.15-1.13,7.29,7.29,0,0,1-.66-3.56v-2.91a7.32,7.32,0,0,1,.66-3.56,2.31,2.31,0,0,1,2.15-1.13h42.86c.69,0,1.44,1.1,2.26,3.29a16.19,16.19,0,0,1,1.21,5.34,2,2,0,0,1-.46,1.31L865,292.4h28.6a2.31,2.31,0,0,1,2.16,1.13,7.45,7.45,0,0,1,.65,3.56V300a7.43,7.43,0,0,1-.65,3.56,2.29,2.29,0,0,1-2.16,1.13H848.19c-.75,0-1.55-1.05-2.39-3.14"/><path class="cls-5" d="M471.48,394.73V357.19H468a1.5,1.5,0,0,1-1.31-.61,3.51,3.51,0,0,1-.43-2v-1a3.57,3.57,0,0,1,.43-2,1.52,1.52,0,0,1,1.31-.61h3.48v-8.27q0-6.87,3.4-9.45a12.65,12.65,0,0,1,7.83-2.57c4.24,0,6.36.88,6.36,2.62a8.72,8.72,0,0,1-.52,2.48c-.35,1.07-.78,1.61-1.31,1.61a5.17,5.17,0,0,1-1.26-.22,10.74,10.74,0,0,0-2.48-.22,4.58,4.58,0,0,0-3.48,1.27c-.82.84-1.22,2.56-1.22,5.18v7.57h7.57a1.49,1.49,0,0,1,1.35.61,3.9,3.9,0,0,1,.39,2v1a3.84,3.84,0,0,1-.39,2,1.47,1.47,0,0,1-1.35.61H478.8v37.54c0,1.27-1.16,1.91-3.49,1.91H475c-2.33,0-3.49-.64-3.49-1.91"/><path class="cls-5" d="M503,393.24q-3.79-3.74-3.79-10.36V352.66c0-1.27,1.16-1.91,3.48-1.91h.35c2.32,0,3.48.64,3.48,1.91v29.53a8.22,8.22,0,0,0,2.31,6.22,9.11,9.11,0,0,0,6.58,2.22A11.8,11.8,0,0,0,521.3,389a17.21,17.21,0,0,0,5.1-4.44V352.66c0-1.27,1.16-1.91,3.48-1.91h.35c2.32,0,3.48.64,3.48,1.91v30.92a45.89,45.89,0,0,0,.52,8.23c.35,1.65.53,2.57.53,2.74,0,.7-.56,1.21-1.66,1.52a11,11,0,0,1-3.05.48,1.88,1.88,0,0,1-1.78-1.34,14.85,14.85,0,0,1-.87-2.84l-.39-1.91a21.15,21.15,0,0,1-6.36,4.79,16.35,16.35,0,0,1-7.23,1.74q-6.61,0-10.4-3.75M506.85,344a1.55,1.55,0,0,1-.92-1.44v-4.87a1.55,1.55,0,0,1,.92-1.44,9.09,9.09,0,0,1,5.83,0,1.55,1.55,0,0,1,.92,1.44v4.87a1.55,1.55,0,0,1-.92,1.44,9.09,9.09,0,0,1-5.83,0m13.06,0a1.55,1.55,0,0,1-.92-1.44v-4.87a1.55,1.55,0,0,1,.92-1.44,9.12,9.12,0,0,1,5.84,0,1.55,1.55,0,0,1,.91,1.44v4.87a1.55,1.55,0,0,1-.91,1.44,9.12,9.12,0,0,1-5.84,0"/><path class="cls-5" d="M550.73,394.73V364.16a44.72,44.72,0,0,0-.53-8.23c-.35-1.66-.52-2.57-.52-2.74q0-1.05,1.65-1.53a11.4,11.4,0,0,1,3-.47,1.88,1.88,0,0,1,1.79,1.26,14.69,14.69,0,0,1,.87,2.65l.39,1.83q4.62-6.53,10.1-6.53a7,7,0,0,1,3.79.83,2.86,2.86,0,0,1,1.26,2.57,10,10,0,0,1-.52,3.09c-.35,1.07-.75,1.61-1.22,1.61a6.15,6.15,0,0,1-1.7-.48,8.72,8.72,0,0,0-3.09-.48,7.25,7.25,0,0,0-4.35,1.53,15.33,15.33,0,0,0-3.66,3.78v31.88c0,1.27-1.16,1.91-3.48,1.91h-.35c-2.32,0-3.48-.64-3.48-1.91"/><path class="cls-5" d="M624.69,395.25,604.75,338a3.23,3.23,0,0,1-.26-1.13c0-1,1.24-1.48,3.74-1.48h.87c2,0,3.19.46,3.48,1.39l14.89,42.58a57.84,57.84,0,0,1,2.18,8.45h.26c.7-3.19,1.46-6,2.27-8.53l14.62-42.5c.3-.93,1.46-1.39,3.49-1.39h.52c2.5,0,3.75.49,3.75,1.48a4.11,4.11,0,0,1-.27,1.22l-19.94,57.21c-.29.93-1.45,1.39-3.48,1.39h-2.7c-2,0-3.19-.46-3.48-1.39"/><path class="cls-5" d="M664.72,342.74v-5.23c0-1.27,1.28-1.91,3.83-1.91s3.83.64,3.83,1.91v5.23c0,1.27-1.27,1.91-3.83,1.91s-3.83-.64-3.83-1.91m.18,52V352.67q0-1.92,3.48-1.92h.35q3.48,0,3.48,1.92v42.06c0,1.27-1.16,1.91-3.48,1.91h-.35c-2.32,0-3.48-.64-3.48-1.91"/><path class="cls-5" d="M691.89,391.33q-5.22-5.65-5.22-17.33t5.13-17.59q5.15-6,15.15-6,8.89,0,13.42,5.79t4.53,16.94a4.22,4.22,0,0,1-1,2.18c-.7.93-1.31,1.39-1.83,1.39H694.5q.53,7.23,3.75,10.62c2.14,2.27,5.37,3.4,9.66,3.4a19.8,19.8,0,0,0,6.32-.91,32.65,32.65,0,0,0,4.4-1.83,9.51,9.51,0,0,1,2-.92c.58,0,1.23.58,2,1.75a5.81,5.81,0,0,1,1.08,2.61c0,.69-.72,1.49-2.17,2.39a20.42,20.42,0,0,1-5.79,2.26A31.33,31.33,0,0,1,708,397q-10.89,0-16.11-5.66m25.25-20.9q0-13.76-10.45-13.76-11.22,0-12.19,13.76Z"/><path class="cls-5" d="M742.09,394.33c-2.29-1.76-3.44-4.89-3.44-9.36V332.9c0-1.28,1.16-1.92,3.49-1.92h.34q3.48,0,3.48,1.92v51.38c0,2.43.43,4.12,1.27,5.05a4.4,4.4,0,0,0,3.44,1.39,10.2,10.2,0,0,0,2.48-.22,5.71,5.71,0,0,1,1.26-.22c.53,0,1,.54,1.31,1.62a8.66,8.66,0,0,1,.52,2.48q0,2.61-6.35,2.61a12.44,12.44,0,0,1-7.8-2.66"/><path class="cls-5" d="M769.68,394.73V357.19h-3.49a1.48,1.48,0,0,1-1.3-.61,3.42,3.42,0,0,1-.44-2v-1a3.48,3.48,0,0,1,.44-2,1.5,1.5,0,0,1,1.3-.61h3.49v-8.27q0-6.87,3.39-9.45a12.66,12.66,0,0,1,7.84-2.57c4.23,0,6.35.88,6.35,2.62a8.72,8.72,0,0,1-.52,2.48c-.35,1.07-.78,1.61-1.3,1.61a5.23,5.23,0,0,1-1.27-.22,10.68,10.68,0,0,0-2.48-.22,4.58,4.58,0,0,0-3.48,1.27c-.81.84-1.22,2.56-1.22,5.18v7.57h7.58a1.51,1.51,0,0,1,1.35.61,3.9,3.9,0,0,1,.39,2v1a3.84,3.84,0,0,1-.39,2,1.49,1.49,0,0,1-1.35.61H777v37.54c0,1.27-1.16,1.91-3.48,1.91h-.35c-2.32,0-3.48-.64-3.48-1.91"/><path class="cls-5" d="M799.68,393.68c-2.72-2.2-4.09-5.46-4.09-9.75q0-6.89,4.14-10.32a20.87,20.87,0,0,1,10.14-4.44,96.78,96.78,0,0,1,14.63-1.09V364a6.77,6.77,0,0,0-2.26-5.27q-2.26-2.06-7.32-2.05a22.16,22.16,0,0,0-6.7.91,39.74,39.74,0,0,0-4.79,1.83,15.61,15.61,0,0,1-2.09.92c-.58,0-1.23-.58-2-1.74a5.72,5.72,0,0,1-1.09-2.62c0-.75.77-1.56,2.31-2.44a24.68,24.68,0,0,1,6.14-2.22,33.93,33.93,0,0,1,7.92-.91q8.1,0,12.63,3.62a12.13,12.13,0,0,1,4.53,10.05v19.51a45,45,0,0,0,.52,8.23c.35,1.65.52,2.57.52,2.74,0,.7-.55,1.21-1.65,1.52a11,11,0,0,1-3.05.48,1.87,1.87,0,0,1-1.78-1.34,15.87,15.87,0,0,1-.88-2.84l-.39-1.91A19,19,0,0,1,810.48,397q-6.71,0-10.8-3.31m18.51-4.61a30.18,30.18,0,0,0,6.31-4.45V374.35c-4.35.06-7.91.23-10.66.52a16.47,16.47,0,0,0-7.28,2.44,6.82,6.82,0,0,0-3.13,6.18,7.07,7.07,0,0,0,1.87,5.31,7.61,7.61,0,0,0,5.53,1.83,16.15,16.15,0,0,0,7.36-1.56"/><path class="cls-5" d="M851.84,394.33c-2.3-1.76-3.44-4.89-3.44-9.36V332.9q0-1.92,3.48-1.92h.35q3.48,0,3.48,1.92v51.38c0,2.43.42,4.12,1.26,5.05a4.4,4.4,0,0,0,3.44,1.39,10.3,10.3,0,0,0,2.49-.22,5.62,5.62,0,0,1,1.26-.22c.52,0,1,.54,1.3,1.62a8.75,8.75,0,0,1,.53,2.48q0,2.61-6.36,2.61a12.42,12.42,0,0,1-7.79-2.66"/><path class="cls-5" d="M882.72,394.33c-2.3-1.76-3.44-4.89-3.44-9.36V357.19h-4.36a1.48,1.48,0,0,1-1.3-.61,3.5,3.5,0,0,1-.44-2v-1.05a3.55,3.55,0,0,1,.44-2,1.5,1.5,0,0,1,1.3-.61h4.36l1-9.14c.18-1.28,1.1-1.92,2.79-1.92H884q2.61,0,2.61,1.92v9.14h7.32a1.5,1.5,0,0,1,1.35.61,3.88,3.88,0,0,1,.39,2v1.05a3.84,3.84,0,0,1-.39,2,1.48,1.48,0,0,1-1.35.61h-7.32v27.09c0,2.43.42,4.12,1.26,5.05a4.42,4.42,0,0,0,3.44,1.39,10.3,10.3,0,0,0,2.49-.22,5.71,5.71,0,0,1,1.26-.22c.52,0,1,.54,1.31,1.62a9,9,0,0,1,.52,2.48q0,2.61-6.36,2.61a12.42,12.42,0,0,1-7.79-2.66"/><path class="cls-6" d="M374.53,566.57c2.05,0,31.7,2.74,26.91,9.3a6.69,6.69,0,0,1-3.88,2c-9.56,2.15-19.65,2-29.39,2.11-11.34.15-23.29,1.3-32.87-4.75-1.17-.73-2.44-1.92-2.06-3.25s2.09-1.67,3.47-1.76c10.76-.67,21.37-3,32.14-3.51A56.5,56.5,0,0,1,374.53,566.57Z"/><path class="cls-1" d="M331.31,260.53c33.77-13.84,46.76-21.77,61.74-36.22,12-11.59,13.07-20.7,12.11-21.93-2-2.59-10.06,5.64-23.06,13.87-18.33,11.6-41.17,22-71.93,22.38a159,159,0,0,1-24.52-2.26c-55.87-9.36-100.44-36.68-115.09-76.94-1.64-4.5-2.28-12.13-5.76-10.06-.86.51-4.11,6.3-2.56,20.09,1.59,14.23,7.67,25.49,13.43,34.37,18.51,28.5,45,43.44,60.87,53.27v0c0,.25-.07.46-.1.61-16.72,98,32.48,187.43,42.91,204.57,17.3,28.42,27.89,31.93,44.84,57.48,3.19,4.81,5.61,7.38,8,5.23,2.67-2.41-4.11-24-9.23-35-8.33-17.81-21.67-44.94-25.51-56.71-3.92-12-30.28-74.76,3-92.91,5.94-3.23,14.55-5.27,23.24-5.52,9.87.3,19.38,3,24.72,9,11.34,12.76,15.57,30.47,20.79,38.74,9.87,15.62,13.37,15,15.41,13,1.58-1.56-1.86-10.66-2.6-18.5-2-21.33-5-54.39-19.11-67.89-3.36-3.22-10-4.49-17.64-4.68-12.56-1.22-29.45,2.76-39.49,4.46-2,.34-2-1.91-2.31-4.9-.8-8.78-1-19.67.2-24.9C305.43,271.85,311.69,268.56,331.31,260.53Z"/><path class="cls-1" d="M314.16,163.64c-4.67-2.95-10-3.45-14.93-3.78-8.74-.66-17.63,3.48-23.8,11.75-7,7.71-24.08,54.27,18.72,54.27h1.63C325.25,225.88,330.39,173.89,314.16,163.64Z"/><path class="cls-1" d="M144.92,129.48c-7.71,2.85-4.46,12.88.44,15.23,5.52,2.64,6.35,10.37,8.76,9.75,2.76-.71,3.27-6.72,2.91-12.83-.44-7.64-3.63-15.29-12.11-12.15"/><path class="cls-1" d="M427.35,190.13c-6.53-4.24-11.31,3.39-12.68,9.17s-3.91,11.47-2,13c2.21,1.81,7-.35,12.06-5.25,5.54-5.38,9.15-12.73,2.61-17"/><path class="cls-1" d="M337.83,539.65c3.14-4.57,2.52-8.58,2.52-10.35,0-4.42,3.26-3.82,6.81-.71,3.95,3.45,7,10.28,4.78,20.22-1.32,5.88-6.4,13.87-14.11,9.1s-3.15-13.7,0-18.26"/><path class="cls-1" d="M399.45,421.94c-2.39,7.61-11.46,6.06-16.53,3-8.72-5.28-10.84-12.83-10.31-18,.48-4.7,2.44-7.36,5.46-4.14,1.21,1.3,3.71,3.51,9.12,5.45,5.22,1.87,15,5.06,12.26,13.74"/><path class="cls-5" d="M308.3,161.15a23.19,23.19,0,0,1,12.38,3.64c7.89,5,10.81,22.14,6.37,37.46A36.73,36.73,0,0,1,318.36,218a21,21,0,0,1-15.34,6.5c-12.32,0-20.31-4-23.75-11.72-6-13.65,3.71-35.52,8-40.28l.05,0,0-.06c5.34-7.16,13-11.27,20.91-11.27m0-1.36c-8.14,0-16.26,4.12-22,11.82-7,7.71-26.09,54.27,16.71,54.27,29.48,0,34.61-52,18.39-62.24a24.42,24.42,0,0,0-13.11-3.85"/><path class="cls-5" d="M155.79,129.44a9.83,9.83,0,0,0-3.39.67,5.87,5.87,0,0,0-4.15,5.5c-.15,3.32,2,7.21,4.65,8.49,3.23,1.55,4.95,4.71,6.2,7,.79,1.45,1.52,2.82,2.1,2.68,1.92-.49,2.82-5,2.4-12.13-.31-5.5-2-9.62-4.55-11.3a5.84,5.84,0,0,0-3.26-.93m5.29,25.74c-1.33,0-2.19-1.59-3.17-3.41-1.23-2.27-2.76-5.09-5.6-6.45-3.17-1.51-5.59-5.9-5.42-9.77a7.23,7.23,0,0,1,5-6.71c3.08-1.14,5.72-1,7.86.39,4,2.64,5,8.88,5.17,12.36.33,5.69,0,12.65-3.42,13.53a1.88,1.88,0,0,1-.46.06m269.78,34.4a4.84,4.84,0,0,0-1.82.36c-3.21,1.28-5.56,5.7-6.46,9.51-.37,1.55-.81,3.07-1.24,4.54-1,3.42-2,7-1,7.83,1.85,1.51,6.44-.64,11.15-5.22,4.05-3.93,6.2-8,5.89-11.18a6.31,6.31,0,0,0-3.17-4.72,6.12,6.12,0,0,0-3.37-1.12m-8.95,24.08a3.7,3.7,0,0,1-2.41-.79c-1.76-1.44-.75-4.89.53-9.26.43-1.46.87-3,1.23-4.47,1-4.15,3.62-9,7.27-10.46a6.74,6.74,0,0,1,6.44.88,7.6,7.6,0,0,1,3.78,5.72c.35,3.59-1.94,8.07-6.29,12.3-4.06,3.94-7.84,6.08-10.55,6.08"/><path class="cls-5" d="M310.56,307.45c-.79.13-1.4.26-2.53.36-1.29.1-1.93.52-1.69,1.54a1.17,1.17,0,0,0,1.28.88,10.41,10.41,0,0,0,1.07-.5,14.34,14.34,0,0,1,3.06-.9c11.41-2.1,48.54-8.07,58,1,13.84,13.27,16.88,45.74,18.89,67.23l0,.23a68.23,68.23,0,0,0,1.88,9.66c.89,3.64,1.81,7.41.92,8.3a1.66,1.66,0,0,1-1.47.36c-1.12-.19-5.21-1.69-10.75-13.08-1.21-2.48-2.35-5.62-3.68-9.25-3.34-9.15-7.5-20.54-15.69-29.75-11.18-12.58-39.07-10.91-52.42-3.64s-18.77,22.09-16.49,44.24c1.84,17.86,8.2,35.63,11.62,45.17.64,1.79,1.16,3.24,1.51,4.3,3,9.29,11.85,27.88,19.63,44.28,2.11,4.44,4.12,8.69,5.91,12.51,6.14,13.14,11.21,31.89,9.55,33.19a.65.65,0,0,1-.56.13c-1-.18-2.62-1.85-4.2-4.37a182.27,182.27,0,0,0-20.69-27A186.88,186.88,0,0,1,290.82,462c-6.21-10.2-60.16-102.55-42.83-204.1.13-.78.46-3.08.73-5a18.08,18.08,0,0,1,.61-2.35,1.3,1.3,0,0,0-2.3-1.22,5.46,5.46,0,0,0-.18,2.24,14.47,14.47,0,0,1-.3,4.2l-2.19-1.34c-16-9.77-40.08-24.55-57.24-51-8.22-12.65-13.25-24.85-15.39-37.3-1.14-6.65-.73-12.11,1.11-14.61a2.5,2.5,0,0,1,1.58-1.11c.51-.06,1,2.39,1.39,4a37.75,37.75,0,0,0,1.36,5.2c14.08,38.68,57.3,67.61,115.61,77.39a161.25,161.25,0,0,0,26.6,2.3c33.35,0,56.66-11.58,73.95-22.53a105.61,105.61,0,0,0,13.91-10.6c2.25-2,4.2-3.69,4.74-3.31.67.9-.4,9.57-12.15,20.91-15.36,14.83-28.59,22.58-61.53,36.08-19.28,7.9-26.19,11.36-28,19.23-1.73,7.45-1.16,19.91.27,28.32m28.25-46.29c33.14-13.58,46.45-21.4,62-36.36,9.78-9.43,12.94-18,12.68-21.45a1.93,1.93,0,0,0-.65-1.52c-1.45-1-3.13.44-6.46,3.36a103.24,103.24,0,0,1-13.73,10.48c-21.36,13.52-52,28-99.6,20-57.83-9.69-100.66-38.29-114.57-76.5a38.31,38.31,0,0,1-1.3-5c-.63-3-1.14-5.32-2.9-5.08a3.77,3.77,0,0,0-2.5,1.64c-2.08,2.84-2.57,8.54-1.35,15.65,2.17,12.64,7.27,25,15.58,37.81,17.33,26.68,41.62,41.55,57.68,51.39l3,1.86a1.77,1.77,0,0,0,0,.2c-17.41,102,36.77,194.79,43,205a188,188,0,0,0,23,30.55c6.57,7.38,12.77,14.35,20.56,26.8,1.31,2.09,3.27,4.65,5.12,5a1.72,1.72,0,0,0,.39,0,2,2,0,0,0,1.24-.43c3.19-2.5-4.9-25.71-9.16-34.84-1.79-3.82-3.8-8.07-5.91-12.51-7.76-16.37-16.57-34.92-19.57-44.12-.35-1.07-.87-2.53-1.52-4.34-6.34-17.68-25.61-71.51,4.24-87.76,12.67-6.89,40.17-8.56,50.76,3.35,8,9,12.12,20.28,15.43,29.32,1.34,3.66,2.49,6.83,3.73,9.37,4,8.2,8.27,13.24,11.74,13.83a3,3,0,0,0,2.66-.74c1.44-1.43.6-4.85-.56-9.59a65.15,65.15,0,0,1-1.84-9.46l0-.23c-2-21.69-5.1-54.46-19.3-68.08-9.88-9.47-46.61-3.65-58.72-1.41-1.43-8.28-2-20.63-.32-28,1.6-6.9,7.24-10.09,27.2-18.27"/><path class="cls-5" d="M382.87,402a.89.89,0,0,0-.32.05c-1,.32-1.74,2.2-2,4.89-.26,2.5-.29,11.17,10,17.38,3.15,1.91,7.93,3.24,11.48,1.9a6.65,6.65,0,0,0,4.05-4.5c2.45-7.8-6.2-10.89-11.37-12.73l-.47-.17a23.56,23.56,0,0,1-9.39-5.62,3.22,3.22,0,0,0-1.95-1.2m15.91,26.11a18.2,18.2,0,0,1-9-2.62c-11-6.63-10.91-16-10.64-18.69.35-3.37,1.39-5.52,2.94-6,1.15-.39,2.39.12,3.69,1.51a22.3,22.3,0,0,0,8.85,5.27l.48.17c5.26,1.88,15.05,5.37,12.2,14.42a7.92,7.92,0,0,1-4.86,5.36,10.57,10.57,0,0,1-3.7.62M349.71,525.8a1.4,1.4,0,0,0-.56.1c-.72.33-.87,1.48-.87,2.39,0,.22,0,.46,0,.74a15.24,15.24,0,0,1-2.67,10c-1.87,2.72-4.87,7.92-3.95,12.29a7.69,7.69,0,0,0,3.75,5c2.32,1.43,4.52,1.73,6.53.88,3.38-1.42,5.73-5.82,6.57-9.55,1.83-8.15.12-15.46-4.57-19.56-1.69-1.47-3.24-2.3-4.25-2.3m-.07,33.25a9.36,9.36,0,0,1-4.92-1.56,9,9,0,0,1-4.37-5.89c-1-4.62,1.73-9.81,4.17-13.34h0a13.89,13.89,0,0,0,2.42-9.18c0-.29,0-.56,0-.79,0-1.9.56-3.12,1.67-3.62,1.48-.67,3.71.17,6.27,2.4,5.06,4.44,6.93,12.24,5,20.89-.84,3.77-3.28,8.79-7.36,10.51a7.3,7.3,0,0,1-2.85.58"/></svg>