<svg version="1.1" xmlns="http://www.w3.org/2000/svg" width="221" height="84" viewBox="0 0 221 84">
<title>BMFSFJ_2017_WebSVG_de</title>
<path fill="#000" d="M63.071 5.098c0 0.014 0 0.031 0 0.047 0 0.341-0.054 0.669-0.153 0.976l0.006-0.022c-0.092 0.281-0.223 0.525-0.391 0.74l0.004-0.005c-0.159 0.197-0.349 0.362-0.564 0.489l-0.010 0.005c-0.196 0.115-0.422 0.211-0.661 0.276l-0.020 0.005c0.302 0.058 0.571 0.165 0.812 0.313l-0.011-0.006c0.254 0.153 0.47 0.339 0.651 0.557l0.003 0.004c0.183 0.225 0.332 0.486 0.435 0.769l0.006 0.019c0.102 0.281 0.161 0.606 0.161 0.944 0 0.015-0 0.031-0 0.046v-0.002c0 0.007 0 0.016 0 0.024 0 0.42-0.083 0.82-0.235 1.185l0.008-0.021c-0.159 0.373-0.395 0.687-0.69 0.931l-0.004 0.003c-0.335 0.272-0.732 0.483-1.165 0.608l-0.024 0.006c-0.475 0.16-1.024 0.262-1.593 0.28l-0.009 0h-2.31v-10.961h2.109c0.031-0.001 0.068-0.001 0.105-0.001 0.551 0 1.085 0.073 1.593 0.211l-0.042-0.010c0.435 0.116 0.815 0.309 1.142 0.566l-0.007-0.005c0.283 0.23 0.502 0.527 0.636 0.867l0.005 0.014c0.135 0.341 0.214 0.735 0.214 1.148 0 0 0 0 0 0v0zM61.736 5.098c0-0.014 0.001-0.031 0.001-0.048 0-0.478-0.206-0.908-0.533-1.205l-0.001-0.001c-0.41-0.314-0.929-0.502-1.493-0.502-0.071 0-0.142 0.003-0.212 0.009l0.009-0.001h-0.801v3.832h0.721c0.053 0.004 0.115 0.007 0.178 0.007 0.573 0 1.099-0.204 1.508-0.544l-0.004 0.003c0.349-0.352 0.565-0.837 0.565-1.372 0-0.043-0.001-0.086-0.004-0.129l0 0.006zM61.883 10.198c0.001-0.026 0.002-0.056 0.002-0.087 0-0.52-0.221-0.987-0.575-1.314l-0.001-0.001c-0.409-0.328-0.935-0.527-1.507-0.527-0.062 0-0.123 0.002-0.184 0.007l0.008-0h-0.935v3.845h0.935c0.070 0.006 0.151 0.010 0.233 0.010 0.578 0 1.114-0.184 1.551-0.496l-0.008 0.005c0.305-0.324 0.492-0.761 0.492-1.242 0-0.070-0.004-0.14-0.012-0.208l0.001 0.008zM70.401 13.268h-1.175v-0.855c-0.060 0.106-0.126 0.198-0.202 0.282l0.001-0.001c-0.117 0.131-0.249 0.246-0.393 0.342l-0.007 0.005c-0.173 0.115-0.372 0.214-0.582 0.288l-0.019 0.006c-0.228 0.085-0.492 0.133-0.767 0.133-0.003 0-0.005 0-0.008 0h0c-0.011 0-0.024 0-0.036 0-0.327 0-0.641-0.059-0.93-0.166l0.018 0.006c-0.277-0.102-0.511-0.267-0.692-0.478l-0.002-0.002c-0.2-0.243-0.353-0.534-0.437-0.852l-0.004-0.016c-0.095-0.359-0.149-0.771-0.149-1.195 0-0.049 0.001-0.098 0.002-0.147l-0 0.007v-4.98h1.335v4.913c-0.005 0.054-0.007 0.116-0.007 0.179 0 0.426 0.117 0.825 0.32 1.166l-0.006-0.010c0.21 0.248 0.521 0.404 0.868 0.404 0.033 0 0.065-0.001 0.097-0.004l-0.004 0c0.013 0 0.029 0.001 0.045 0.001 0.333 0 0.642-0.105 0.894-0.284l-0.005 0.003c0.227-0.161 0.424-0.342 0.597-0.543l0.004-0.004v-5.821h1.335v7.623zM76.529 13.268v-4.913c0.003-0.046 0.005-0.099 0.005-0.153 0-0.436-0.121-0.845-0.331-1.193l0.006 0.010c-0.217-0.263-0.543-0.43-0.909-0.43-0.028 0-0.056 0.001-0.083 0.003l0.004-0c-0.017-0.001-0.037-0.001-0.058-0.001-0.334 0-0.642 0.105-0.895 0.285l0.005-0.003c-0.226 0.167-0.423 0.351-0.597 0.556l-0.004 0.005v5.875h-1.335v-7.664h1.175v0.855c0.060-0.106 0.126-0.198 0.202-0.282l-0.001 0.001c0.139-0.115 0.297-0.214 0.468-0.289l0.013-0.005c0.173-0.112 0.371-0.212 0.581-0.287l0.020-0.006c0.23-0.085 0.497-0.134 0.774-0.134 0.009 0 0.019 0 0.028 0h-0.001c0.014-0 0.030-0 0.047-0 0.313 0 0.614 0.054 0.893 0.153l-0.019-0.006c0.277 0.102 0.511 0.267 0.692 0.478l0.002 0.002c0.198 0.244 0.35 0.534 0.437 0.851l0.004 0.016c0.103 0.364 0.162 0.783 0.162 1.215 0 0.042-0.001 0.084-0.002 0.126l0-0.006v4.94h-1.335zM79.386 9.57c-0.004-0.075-0.006-0.162-0.006-0.251 0-0.603 0.1-1.182 0.284-1.723l-0.011 0.038c0.178-0.488 0.442-0.906 0.776-1.256l-0.001 0.001c0.293-0.303 0.656-0.537 1.063-0.675l0.019-0.006c0.358-0.124 0.771-0.198 1.2-0.2h0.001c0.096-0.010 0.208-0.016 0.32-0.016s0.224 0.006 0.334 0.017l-0.014-0.001c0.167 0.032 0.315 0.078 0.454 0.139l-0.014-0.005v-3.591l1.335-0.147v11.375h-1.175v-0.814c-0.055 0.102-0.112 0.189-0.177 0.271l0.003-0.004c-0.101 0.127-0.215 0.237-0.342 0.33l-0.005 0.004c-0.161 0.115-0.347 0.21-0.546 0.276l-0.015 0.004c-0.22 0.076-0.473 0.121-0.736 0.121-0.013 0-0.027-0-0.040-0h0.002c-0.028 0.001-0.061 0.002-0.094 0.002-0.367 0-0.716-0.079-1.030-0.222l0.016 0.006c-0.321-0.154-0.589-0.37-0.797-0.636l-0.004-0.005c-0.244-0.354-0.429-0.77-0.53-1.218l-0.005-0.024c-0.164-0.535-0.262-1.149-0.267-1.786v-0.003zM82.404 12.321c0.005 0 0.011 0 0.017 0 0.185 0 0.363-0.029 0.529-0.084l-0.012 0.003c0.158-0.052 0.295-0.12 0.42-0.204l-0.006 0.004c0.116-0.076 0.216-0.159 0.307-0.253l0-0.001 0.187-0.227v-4.7c-0.115-0.072-0.247-0.135-0.387-0.183l-0.014-0.004c-0.16-0.051-0.343-0.081-0.534-0.081-0.019 0-0.038 0-0.056 0.001l0.003-0c-0.006-0-0.014-0-0.022-0-0.29 0-0.567 0.054-0.822 0.152l0.016-0.005c-0.274 0.107-0.503 0.276-0.679 0.491l-0.002 0.003c-0.201 0.257-0.357 0.56-0.45 0.89l-0.004 0.018c-0.102 0.371-0.161 0.797-0.161 1.236 0 0.035 0 0.069 0.001 0.104l-0-0.005c-0.001 0.037-0.001 0.081-0.001 0.126 0 0.429 0.049 0.846 0.142 1.247l-0.007-0.037c0.075 0.325 0.205 0.611 0.379 0.863l-0.005-0.008c0.137 0.197 0.317 0.355 0.526 0.464l0.008 0.004c0.181 0.104 0.395 0.171 0.623 0.187l0.004 0zM91.99 8.222q0 0.494 0 0.855t0 0.627h-3.992c-0.001 0.030-0.001 0.064-0.001 0.099 0 0.705 0.215 1.36 0.583 1.902l-0.008-0.012c0.333 0.395 0.828 0.644 1.381 0.644 0.036 0 0.071-0.001 0.106-0.003l-0.005 0c0.006 0 0.014 0 0.021 0 0.206 0 0.406-0.029 0.595-0.084l-0.015 0.004c0.308-0.089 0.575-0.231 0.805-0.417l-0.004 0.003 0.214-0.187 0.481 0.948-0.24 0.227c-0.125 0.116-0.265 0.217-0.416 0.302l-0.011 0.006c-0.191 0.106-0.413 0.197-0.646 0.262l-0.022 0.005c-0.258 0.068-0.555 0.108-0.861 0.108-0.026 0-0.052-0-0.078-0.001l0.004 0c-0.024 0.001-0.053 0.001-0.081 0.001-0.452 0-0.883-0.089-1.276-0.249l0.023 0.008c-0.397-0.163-0.729-0.414-0.984-0.73l-0.004-0.005c-0.288-0.377-0.505-0.824-0.623-1.311l-0.005-0.024c-0.145-0.519-0.228-1.115-0.228-1.73 0-0.044 0-0.088 0.001-0.132l-0 0.007c-0.001-0.039-0.001-0.086-0.001-0.133 0-0.581 0.083-1.141 0.239-1.672l-0.011 0.042c0.173-0.461 0.422-0.856 0.736-1.19l-0.002 0.002c0.246-0.301 0.554-0.54 0.906-0.701l0.016-0.006c0.324-0.144 0.702-0.227 1.1-0.227 0.008 0 0.015 0 0.023 0h-0.001c0.036-0.002 0.078-0.003 0.12-0.003 0.632 0 1.202 0.268 1.601 0.696l0.001 0.001c0.36 0.491 0.575 1.106 0.575 1.772 0 0.105-0.005 0.208-0.016 0.31l0.001-0.013zM89.573 6.5c-0.452 0.001-0.851 0.226-1.092 0.57l-0.003 0.004c-0.3 0.469-0.479 1.041-0.481 1.655v0h2.777c0.002-0.034 0.004-0.073 0.004-0.113s-0.001-0.080-0.004-0.119l0 0.005q0-0.147 0-0.32c0.002-0.035 0.003-0.076 0.003-0.117 0-0.413-0.121-0.797-0.329-1.119l0.005 0.008c-0.196-0.276-0.514-0.454-0.874-0.454-0.003 0-0.005 0-0.008 0h0zM97.010 7.18c-0.14-0.14-0.293-0.267-0.456-0.38l-0.011-0.007c-0.225-0.152-0.502-0.242-0.8-0.242-0.024 0-0.048 0.001-0.072 0.002l0.003-0c-0.022-0.001-0.047-0.002-0.073-0.002-0.266 0-0.51 0.091-0.704 0.244l0.002-0.002c-0.164 0.136-0.267 0.339-0.267 0.566 0 0.003 0 0.005 0 0.008v-0c-0.001 0.014-0.001 0.030-0.001 0.046 0 0.253 0.091 0.484 0.243 0.663l-0.001-0.001c0.231 0.201 0.495 0.375 0.78 0.512l0.021 0.009 0.481 0.28c0.476 0.268 0.881 0.597 1.224 0.983l0.004 0.005c0.275 0.348 0.441 0.793 0.441 1.278 0 0.020-0 0.040-0.001 0.061l0-0.003c0 0.013 0 0.028 0 0.043 0 0.58-0.24 1.105-0.627 1.479l-0.001 0.001c-0.432 0.385-1.004 0.62-1.632 0.62-0.060 0-0.12-0.002-0.179-0.006l0.008 0c-0.017 0-0.037 0.001-0.057 0.001-0.269 0-0.53-0.034-0.779-0.099l0.022 0.005c-0.237-0.064-0.441-0.141-0.635-0.236l0.021 0.009c-0.168-0.079-0.313-0.173-0.444-0.283l0.003 0.002-0.347-0.134 0.614-1.015 0.227 0.227c0.095 0.087 0.2 0.166 0.312 0.235l0.009 0.005c0.123 0.078 0.264 0.145 0.413 0.196l0.014 0.004c0.157 0.051 0.338 0.080 0.526 0.080 0.012 0 0.024-0 0.036-0h-0.002c0.023 0.001 0.050 0.002 0.077 0.002 0.303 0 0.583-0.101 0.807-0.272l-0.003 0.002c0.185-0.143 0.304-0.365 0.307-0.614v-0.001c0.001-0.014 0.001-0.031 0.001-0.048 0-0.15-0.025-0.294-0.070-0.429l0.003 0.009c-0.050-0.139-0.122-0.259-0.214-0.361l0.001 0.001c-0.103-0.114-0.217-0.215-0.341-0.303l-0.006-0.004-0.481-0.387-0.481-0.307c-0.431-0.248-0.801-0.545-1.118-0.891l-0.003-0.003c-0.252-0.334-0.404-0.757-0.404-1.215 0-0.042 0.001-0.084 0.004-0.126l-0 0.006c-0-0.005-0-0.011-0-0.017 0-0.554 0.248-1.049 0.638-1.382l0.003-0.002c0.2-0.173 0.435-0.313 0.692-0.409l0.016-0.005c0.231-0.079 0.496-0.125 0.773-0.125 0.052 0 0.104 0.002 0.156 0.005l-0.007-0c0.009-0 0.019-0 0.029-0 0.26 0 0.512 0.034 0.753 0.098l-0.020-0.005c0.208 0.057 0.39 0.134 0.558 0.233l-0.011-0.006c0.147 0.082 0.274 0.17 0.391 0.27l-0.003-0.003 0.174 0.214zM103.285 13.268v-4.913c0.004-0.056 0.007-0.12 0.007-0.186 0-0.419-0.101-0.815-0.281-1.164l0.007 0.014c-0.176-0.253-0.465-0.417-0.792-0.417-0.027 0-0.053 0.001-0.079 0.003l0.003-0c-0.007-0-0.016-0-0.025-0-0.191 0-0.376 0.029-0.549 0.084l0.013-0.004c-0.168 0.053-0.314 0.121-0.449 0.205l0.008-0.005c-0.126 0.080-0.235 0.168-0.334 0.267l-0 0-0.24 0.254v5.875h-1.335v-7.637h1.175v0.855c0.078-0.115 0.157-0.215 0.242-0.309l-0.002 0.002c0.118-0.13 0.249-0.245 0.393-0.342l0.008-0.005c0.161-0.112 0.347-0.207 0.545-0.276l0.016-0.005c0.201-0.068 0.433-0.108 0.674-0.108 0.021 0 0.042 0 0.064 0.001l-0.003-0c0.046-0.004 0.099-0.006 0.152-0.006 0.73 0 1.364 0.409 1.685 1.011l0.005 0.010c0.094-0.129 0.195-0.243 0.306-0.346l0.001-0.001c0.151-0.127 0.322-0.238 0.506-0.327l0.015-0.006c0.165-0.096 0.355-0.178 0.556-0.236l0.018-0.004c0.2-0.059 0.43-0.094 0.668-0.094 0.009 0 0.019 0 0.028 0h-0.001q2.323 0 2.323 2.67v5.14h-1.335v-4.913c0.004-0.051 0.007-0.11 0.007-0.17 0-0.433-0.127-0.835-0.346-1.173l0.005 0.009c-0.22-0.263-0.548-0.43-0.914-0.43-0.026 0-0.052 0.001-0.077 0.002l0.004-0c-0.013-0-0.029-0.001-0.045-0.001-0.318 0-0.613 0.1-0.854 0.271l0.005-0.003c-0.21 0.149-0.394 0.311-0.558 0.491l-0.002 0.003c0.003 0.056 0.005 0.121 0.005 0.187s-0.002 0.131-0.005 0.196l0-0.009q0 0.2 0 0.427v5.113h-1.335zM111.789 13.268h-1.335v-7.623h1.335v7.623zM111.135 3.803c-0.013 0.001-0.028 0.001-0.043 0.001-0.235 0-0.446-0.098-0.597-0.255l-0-0c-0.15-0.165-0.241-0.385-0.241-0.627 0-0.014 0-0.029 0.001-0.043l-0 0.002c-0-0.011-0.001-0.025-0.001-0.038 0-0.238 0.092-0.455 0.242-0.617l-0.001 0.001c0.152-0.187 0.383-0.306 0.641-0.307h0c0.007-0 0.015-0 0.023-0 0.232 0 0.442 0.097 0.591 0.254l0 0c0.149 0.161 0.241 0.378 0.241 0.616 0 0.013-0 0.027-0.001 0.040l0-0.002c0.001 0.012 0.001 0.027 0.001 0.041 0 0.241-0.092 0.462-0.242 0.627l0.001-0.001c-0.146 0.182-0.366 0.3-0.613 0.307h-0.001zM117.904 13.268v-4.913c0.003-0.046 0.005-0.099 0.005-0.153 0-0.436-0.121-0.845-0.331-1.193l0.006 0.010c-0.217-0.263-0.543-0.43-0.909-0.43-0.028 0-0.056 0.001-0.083 0.003l0.004-0c-0.017-0.001-0.037-0.001-0.058-0.001-0.334 0-0.642 0.105-0.895 0.285l0.005-0.003c-0.226 0.167-0.423 0.351-0.597 0.556l-0.004 0.005v5.875h-1.335v-7.664h1.175v0.855c0.060-0.106 0.126-0.198 0.202-0.282l-0.001 0.001c0.139-0.115 0.297-0.214 0.468-0.289l0.013-0.005c0.173-0.112 0.371-0.212 0.581-0.287l0.020-0.006c0.23-0.085 0.497-0.134 0.774-0.134 0.009 0 0.019 0 0.028 0h-0.001c0.014-0 0.030-0 0.047-0 0.313 0 0.614 0.054 0.893 0.153l-0.019-0.006c0.277 0.102 0.511 0.267 0.692 0.478l0.002 0.002c0.198 0.244 0.35 0.534 0.437 0.851l0.004 0.016c0.103 0.364 0.162 0.783 0.162 1.215 0 0.042-0.001 0.084-0.002 0.126l0-0.006v4.94h-1.335zM122.403 13.268h-1.335v-7.623h1.335v7.623zM121.762 3.803c-0.013 0.001-0.028 0.001-0.043 0.001-0.235 0-0.446-0.098-0.597-0.255l-0-0c-0.15-0.165-0.241-0.385-0.241-0.627 0-0.014 0-0.029 0.001-0.043l-0 0.002c-0-0.011-0.001-0.025-0.001-0.038 0-0.238 0.092-0.455 0.242-0.617l-0.001 0.001c0.152-0.187 0.383-0.306 0.641-0.307h0c0.007-0 0.015-0 0.023-0 0.232 0 0.442 0.097 0.591 0.254l0 0c0.149 0.161 0.241 0.378 0.241 0.616 0 0.013-0 0.027-0.001 0.040l0-0.002c0.001 0.012 0.001 0.027 0.001 0.041 0 0.241-0.092 0.462-0.242 0.627l0.001-0.001c-0.146 0.182-0.366 0.3-0.613 0.307h-0.001zM127.717 7.18c-0.14-0.14-0.293-0.267-0.456-0.38l-0.011-0.007c-0.225-0.152-0.502-0.242-0.8-0.242-0.024 0-0.048 0.001-0.072 0.002l0.003-0c-0.022-0.001-0.047-0.002-0.073-0.002-0.266 0-0.51 0.091-0.704 0.244l0.002-0.002c-0.164 0.136-0.267 0.339-0.267 0.566 0 0.003 0 0.005 0 0.008v-0c-0.001 0.014-0.001 0.030-0.001 0.046 0 0.253 0.091 0.484 0.243 0.663l-0.001-0.001c0.22 0.23 0.471 0.429 0.745 0.592l0.016 0.009 0.481 0.28c0.476 0.268 0.881 0.597 1.224 0.983l0.004 0.005c0.275 0.348 0.441 0.793 0.441 1.278 0 0.020-0 0.040-0.001 0.061l0-0.003c0 0.013 0 0.028 0 0.043 0 0.58-0.24 1.105-0.627 1.479l-0.001 0.001c-0.432 0.385-1.004 0.62-1.632 0.62-0.060 0-0.12-0.002-0.179-0.006l0.008 0c-0.017 0-0.037 0.001-0.057 0.001-0.269 0-0.53-0.034-0.779-0.099l0.022 0.005c-0.237-0.064-0.441-0.141-0.635-0.236l0.021 0.009c-0.168-0.079-0.313-0.173-0.444-0.283l0.003 0.003-0.347-0.214 0.614-1.015 0.227 0.227c0.095 0.087 0.2 0.166 0.312 0.235l0.009 0.005c0.123 0.078 0.264 0.145 0.413 0.196l0.014 0.004c0.157 0.051 0.338 0.080 0.526 0.080 0.012 0 0.024-0 0.036-0h-0.002c0.024 0.002 0.053 0.002 0.081 0.002 0.296 0 0.569-0.096 0.79-0.259l-0.004 0.003c0.185-0.143 0.304-0.365 0.307-0.614v-0.001c0.001-0.014 0.001-0.031 0.001-0.048 0-0.15-0.025-0.294-0.070-0.429l0.003 0.009c-0.050-0.139-0.122-0.259-0.214-0.361l0.001 0.001c-0.103-0.114-0.217-0.215-0.341-0.303l-0.006-0.004-0.481-0.4-0.481-0.307c-0.434-0.271-0.804-0.594-1.116-0.967l-0.006-0.007c-0.252-0.334-0.404-0.757-0.404-1.215 0-0.042 0.001-0.084 0.004-0.126l-0 0.006c-0-0.005-0-0.011-0-0.017 0-0.554 0.248-1.049 0.638-1.382l0.003-0.002c0.2-0.173 0.435-0.313 0.692-0.409l0.016-0.005c0.249-0.093 0.537-0.147 0.837-0.147 0.011 0 0.022 0 0.032 0h-0.002c0.009-0 0.019-0 0.029-0 0.26 0 0.512 0.034 0.753 0.098l-0.020-0.005c0.208 0.057 0.39 0.134 0.558 0.233l-0.011-0.006c0.147 0.082 0.274 0.17 0.391 0.27l-0.003-0.003 0.24 0.227zM133.244 6.686h-1.722v4.232c-0.006 0.060-0.010 0.13-0.010 0.2 0 0.331 0.078 0.643 0.215 0.92l-0.005-0.012c0.146 0.182 0.368 0.298 0.617 0.298 0.027 0 0.054-0.001 0.081-0.004l-0.003 0c0.011 0 0.024 0 0.037 0 0.164 0 0.321-0.030 0.466-0.084l-0.009 0.003 0.307-0.147 0.174 1.028c-0.111 0.073-0.238 0.141-0.373 0.195l-0.015 0.005c-0.215 0.086-0.465 0.135-0.726 0.135-0.031 0-0.062-0.001-0.092-0.002l0.004 0c-0.045 0.004-0.096 0.006-0.149 0.006-0.521 0-0.992-0.211-1.333-0.553l-0-0c-0.316-0.433-0.506-0.976-0.506-1.564 0-0.089 0.004-0.176 0.013-0.263l-0.001 0.011v-4.406h-0.908v-0.855l0.921-0.187 0.16-2.136h1.148v2.136h1.829zM139.493 8.208q0 0.494 0 0.855t0 0.627h-4.045c-0.001 0.030-0.001 0.064-0.001 0.099 0 0.705 0.215 1.36 0.583 1.902l-0.008-0.012c0.333 0.395 0.828 0.644 1.381 0.644 0.036 0 0.071-0.001 0.106-0.003l-0.005 0c0.006 0 0.014 0 0.021 0 0.206 0 0.406-0.029 0.595-0.084l-0.015 0.004c0.308-0.089 0.575-0.231 0.805-0.417l-0.004 0.003 0.2-0.174 0.481 0.948-0.24 0.227c-0.125 0.116-0.265 0.217-0.416 0.302l-0.011 0.006c-0.191 0.106-0.413 0.197-0.646 0.262l-0.022 0.005c-0.258 0.068-0.555 0.108-0.861 0.108-0.026 0-0.052-0-0.078-0.001l0.004 0c-0.024 0.001-0.053 0.001-0.081 0.001-0.452 0-0.883-0.089-1.276-0.249l0.023 0.008c-0.397-0.163-0.729-0.414-0.984-0.73l-0.004-0.005c-0.271-0.36-0.478-0.784-0.595-1.244l-0.005-0.025c-0.145-0.519-0.228-1.115-0.228-1.73 0-0.044 0-0.088 0.001-0.132l-0 0.007c-0.001-0.050-0.002-0.11-0.002-0.169 0-0.582 0.084-1.144 0.24-1.675l-0.011 0.042c0.137-0.466 0.352-0.872 0.633-1.222l-0.005 0.007c0.246-0.301 0.554-0.54 0.906-0.701l0.016-0.006c0.324-0.144 0.702-0.227 1.1-0.227 0.008 0 0.015 0 0.023 0h-0.001c0.036-0.002 0.078-0.003 0.12-0.003 0.632 0 1.202 0.268 1.601 0.696l0.001 0.001c0.404 0.509 0.648 1.16 0.648 1.868 0 0.071-0.002 0.141-0.007 0.211l0.001-0.009zM137.063 6.5c-0.452 0.001-0.851 0.226-1.092 0.57l-0.003 0.004c-0.3 0.469-0.479 1.041-0.481 1.655v0h2.777c0.002-0.034 0.004-0.073 0.004-0.113s-0.001-0.080-0.004-0.119l0 0.005q0-0.147 0-0.32c0.002-0.035 0.003-0.076 0.003-0.117 0-0.413-0.121-0.797-0.329-1.119l0.005 0.008c-0.196-0.276-0.514-0.454-0.874-0.454-0.003 0-0.005 0-0.008 0h0zM144.539 6.766l-0.2-0.080c-0.064-0.009-0.138-0.015-0.214-0.015s-0.149 0.005-0.222 0.016l0.008-0.001c-0.023-0.001-0.050-0.002-0.078-0.002-0.333 0-0.638 0.122-0.872 0.324l0.002-0.001c-0.207 0.193-0.371 0.429-0.476 0.695l-0.005 0.013v5.554h-1.335v-7.623h1.175v1.028c0.059-0.17 0.126-0.315 0.207-0.453l-0.006 0.012c0.088-0.149 0.195-0.277 0.319-0.386l0.002-0.001c0.128-0.113 0.279-0.203 0.444-0.264l0.010-0.003c0.173-0.060 0.373-0.094 0.581-0.094 0.016 0 0.033 0 0.049 0.001l-0.002-0c0.066-0.009 0.143-0.015 0.22-0.015s0.154 0.005 0.229 0.016l-0.009-0.001 0.267 0.080zM147.103 13.268h-1.335v-7.623h1.335v7.623zM146.409 3.803c-0.013 0.001-0.028 0.001-0.043 0.001-0.235 0-0.446-0.098-0.597-0.255l-0-0c-0.15-0.165-0.241-0.385-0.241-0.627 0-0.014 0-0.029 0.001-0.043l-0 0.002c-0-0.011-0.001-0.025-0.001-0.038 0-0.238 0.092-0.455 0.242-0.617l-0.001 0.001c0.152-0.187 0.383-0.306 0.641-0.307h0c0.007-0 0.015-0 0.023-0 0.232 0 0.442 0.097 0.591 0.254l0 0c0.149 0.161 0.241 0.378 0.241 0.616 0 0.013-0 0.027-0.001 0.040l0-0.002c0.001 0.012 0.001 0.027 0.001 0.041 0 0.241-0.092 0.462-0.242 0.627l0.001-0.001c-0.146 0.182-0.366 0.3-0.613 0.307h-0.001zM154.419 13.268h-1.175v-0.855c-0.060 0.106-0.126 0.198-0.202 0.282l0.001-0.001c-0.117 0.131-0.249 0.246-0.393 0.342l-0.007 0.005c-0.173 0.115-0.372 0.214-0.582 0.288l-0.019 0.006c-0.228 0.085-0.492 0.133-0.767 0.133-0.003 0-0.005 0-0.008 0h0c-0.010 0-0.022 0-0.034 0-0.313 0-0.614-0.054-0.893-0.153l0.019 0.006c-0.277-0.102-0.511-0.267-0.692-0.478l-0.002-0.002c-0.257-0.238-0.458-0.533-0.582-0.866l-0.005-0.016c-0.095-0.359-0.149-0.771-0.149-1.195 0-0.049 0.001-0.098 0.002-0.147l-0 0.007v-4.98h1.335v4.913c-0.005 0.054-0.007 0.116-0.007 0.179 0 0.426 0.117 0.825 0.32 1.166l-0.006-0.010c0.21 0.248 0.521 0.404 0.868 0.404 0.033 0 0.065-0.001 0.097-0.004l-0.004 0c0.013 0 0.029 0.001 0.045 0.001 0.333 0 0.642-0.105 0.894-0.284l-0.005 0.003c0.232-0.153 0.434-0.325 0.612-0.518l0.002-0.002v-5.848h1.335v7.623zM160.387 13.268v-4.913c0.004-0.056 0.007-0.12 0.007-0.186 0-0.419-0.101-0.815-0.281-1.164l0.007 0.014c-0.176-0.253-0.465-0.417-0.792-0.417-0.027 0-0.053 0.001-0.079 0.003l0.003-0c-0.007-0-0.016-0-0.025-0-0.191 0-0.376 0.029-0.549 0.084l0.013-0.004c-0.168 0.053-0.314 0.121-0.449 0.205l0.008-0.005c-0.126 0.080-0.235 0.168-0.334 0.267l-0 0-0.24 0.254v5.875h-1.335v-7.637h1.175v0.855c0.078-0.115 0.157-0.215 0.242-0.309l-0.002 0.002c0.118-0.13 0.249-0.245 0.393-0.342l0.008-0.005c0.161-0.112 0.347-0.207 0.545-0.276l0.016-0.005c0.201-0.068 0.432-0.107 0.673-0.107 0.017 0 0.034 0 0.051 0.001l-0.002-0c0.046-0.004 0.099-0.006 0.152-0.006 0.73 0 1.364 0.409 1.685 1.011l0.005 0.010c0.094-0.129 0.195-0.243 0.306-0.346l0.001-0.001c0.13-0.124 0.274-0.234 0.43-0.328l0.011-0.006c0.165-0.096 0.355-0.178 0.556-0.236l0.018-0.004c0.2-0.059 0.43-0.094 0.668-0.094 0.009 0 0.019 0 0.028 0h-0.001q2.323 0 2.323 2.67v5.14h-1.335v-4.913c0.004-0.051 0.007-0.11 0.007-0.17 0-0.433-0.127-0.835-0.346-1.173l0.005 0.009c-0.219-0.256-0.543-0.417-0.904-0.417-0.030 0-0.059 0.001-0.088 0.003l0.004-0c-0.013-0-0.029-0.001-0.045-0.001-0.318 0-0.613 0.1-0.854 0.271l0.005-0.003c-0.21 0.149-0.394 0.311-0.558 0.491l-0.002 0.003c0.003 0.056 0.005 0.121 0.005 0.187s-0.002 0.131-0.005 0.196l0-0.009q0 0.2 0 0.427v5.1h-1.335zM60.254 22.708h-1.549v6.582h-1.335v-6.582h-0.881v-0.855l0.921-0.174v-1.522c-0.001-0.022-0.001-0.049-0.001-0.075 0-0.356 0.064-0.697 0.181-1.013l-0.006 0.020c0.109-0.286 0.268-0.53 0.468-0.735l-0 0c0.182-0.184 0.406-0.326 0.656-0.41l0.012-0.004c0.243-0.085 0.523-0.133 0.814-0.133 0 0 0 0 0 0v0c0.017-0.001 0.037-0.001 0.058-0.001 0.228 0 0.447 0.039 0.65 0.112l-0.014-0.004 0.387 0.174-0.267 1.068-0.267-0.134c-0.116-0.043-0.249-0.069-0.389-0.069-0.023 0-0.046 0.001-0.068 0.002l0.003-0c-0.018-0.001-0.039-0.002-0.060-0.002-0.252 0-0.478 0.109-0.634 0.282l-0.001 0.001c-0.156 0.252-0.249 0.557-0.249 0.884 0 0.060 0.003 0.119 0.009 0.178l-0.001-0.007v1.335h1.722zM66.93 29.29h-1.242v-0.855c-0.060 0.106-0.126 0.198-0.202 0.282l0.001-0.001c-0.117 0.131-0.249 0.246-0.393 0.342l-0.007 0.005c-0.173 0.115-0.372 0.214-0.582 0.288l-0.019 0.006c-0.228 0.085-0.492 0.134-0.767 0.134-0.003 0-0.005 0-0.008 0h0c-0.010 0-0.022 0-0.034 0-0.313 0-0.614-0.054-0.893-0.153l0.019 0.006c-0.277-0.102-0.511-0.267-0.692-0.478l-0.002-0.002c-0.2-0.243-0.353-0.534-0.437-0.852l-0.004-0.016c-0.095-0.359-0.149-0.771-0.149-1.195 0-0.049 0.001-0.098 0.002-0.147l-0 0.007v-4.993h1.335v4.913c-0.005 0.054-0.007 0.116-0.007 0.179 0 0.426 0.117 0.825 0.32 1.166l-0.006-0.010c0.21 0.248 0.521 0.404 0.868 0.404 0.033 0 0.065-0.001 0.097-0.004l-0.004 0c0.013 0 0.029 0.001 0.045 0.001 0.333 0 0.642-0.105 0.894-0.284l-0.005 0.003c0.227-0.161 0.424-0.342 0.597-0.543l0.004-0.004v-5.821h1.335v7.623zM63.765 19.477c0 0.008 0 0.018 0 0.028 0 0.218-0.087 0.415-0.228 0.559l0-0c-0.138 0.139-0.329 0.225-0.541 0.225s-0.403-0.086-0.541-0.225l-0-0c-0.137-0.156-0.22-0.362-0.22-0.587s0.083-0.431 0.221-0.588l-0.001 0.001c0.138-0.139 0.329-0.225 0.541-0.225s0.403 0.086 0.541 0.225l0 0c0.111 0.136 0.178 0.312 0.178 0.503 0 0.030-0.002 0.059-0.005 0.088l0-0.004zM66.209 19.477c0 0.008 0 0.018 0 0.028 0 0.218-0.087 0.415-0.228 0.559l0-0c-0.138 0.139-0.329 0.225-0.541 0.225s-0.403-0.086-0.541-0.225l-0-0c-0.137-0.156-0.22-0.362-0.22-0.587s0.083-0.431 0.221-0.588l-0.001 0.001c0.138-0.139 0.329-0.225 0.541-0.225s0.403 0.086 0.541 0.225l0 0c0.111 0.136 0.178 0.312 0.178 0.503 0 0.030-0.002 0.059-0.005 0.088l0-0.004zM72.243 22.801l-0.2-0.080c-0.064-0.009-0.138-0.015-0.214-0.015s-0.149 0.005-0.222 0.016l0.008-0.001c-0.023-0.001-0.050-0.002-0.078-0.002-0.333 0-0.638 0.122-0.872 0.324l0.002-0.001c-0.207 0.193-0.371 0.429-0.476 0.695l-0.005 0.013v5.541h-1.335v-7.623h1.175v1.028c0.085-0.168 0.178-0.312 0.284-0.446l-0.004 0.005c0.088-0.149 0.195-0.277 0.319-0.386l0.002-0.001c0.128-0.113 0.279-0.203 0.444-0.264l0.010-0.003c0.161-0.051 0.346-0.080 0.538-0.080 0.008 0 0.016 0 0.024 0h-0.001c0.066-0.009 0.143-0.015 0.22-0.015s0.154 0.005 0.229 0.016l-0.009-0.001 0.267 0.080zM76.783 29.303v-10.975h5.34l-0.093 1.095h-3.912v4.005h3.605v1.188h-3.605v4.673h-1.335zM82.764 27.287c-0.001-0.023-0.001-0.049-0.001-0.076 0-0.378 0.094-0.733 0.261-1.044l-0.006 0.012c0.164-0.27 0.379-0.494 0.633-0.663l0.008-0.005c0.291-0.187 0.631-0.326 0.996-0.398l0.018-0.003c0.363-0.076 0.779-0.12 1.206-0.12 0.008 0 0.015 0 0.023 0h0.426v-0.721c0.007-0.060 0.010-0.131 0.010-0.202 0-0.424-0.134-0.818-0.362-1.14l0.004 0.006c-0.227-0.225-0.539-0.365-0.885-0.365-0.036 0-0.072 0.001-0.108 0.005l0.005-0c-0.020-0.001-0.044-0.001-0.068-0.001-0.325 0-0.628 0.090-0.888 0.246l0.008-0.004c-0.228 0.146-0.424 0.291-0.609 0.448l0.009-0.007-0.534-0.855 0.32-0.28c0.14-0.113 0.298-0.215 0.465-0.3l0.015-0.007c0.186-0.094 0.404-0.176 0.631-0.235l0.023-0.005c0.234-0.060 0.503-0.094 0.779-0.094 0.017 0 0.034 0 0.051 0h-0.003c0.048-0.004 0.103-0.005 0.159-0.005 0.629 0 1.2 0.252 1.617 0.66l-0-0c0.434 0.521 0.698 1.197 0.698 1.935 0 0.052-0.001 0.104-0.004 0.155l0-0.007v3.485q0 0.494 0 0.961c-0.005 0.094-0.008 0.203-0.008 0.314s0.003 0.22 0.009 0.329l-0.001-0.015h-1.188v-0.841c-0.058 0.123-0.12 0.228-0.191 0.326l0.004-0.006c-0.092 0.128-0.197 0.238-0.317 0.331l-0.004 0.003c-0.135 0.105-0.289 0.195-0.454 0.262l-0.013 0.005c-0.175 0.068-0.378 0.108-0.589 0.108-0.018 0-0.036-0-0.054-0.001l0.003 0c-0.003 0-0.007 0-0.011 0-0.285 0-0.557-0.059-0.804-0.165l0.013 0.005c-0.499-0.214-0.885-0.613-1.077-1.108l-0.005-0.014c-0.126-0.266-0.203-0.577-0.214-0.904l-0-0.004zM85.074 28.315c0.007 0 0.016 0 0.024 0 0.164 0 0.32-0.029 0.465-0.083l-0.009 0.003c0.138-0.050 0.257-0.113 0.365-0.19l-0.005 0.003c0.097-0.069 0.18-0.149 0.252-0.238l0.002-0.002 0.16-0.174v-1.682h-0.414c-0.487 0.001-0.947 0.119-1.352 0.328l0.017-0.008c-0.291 0.175-0.483 0.49-0.483 0.849 0 0.025 0.001 0.050 0.003 0.075l-0-0.003c-0.001 0.023-0.002 0.050-0.002 0.077 0 0.303 0.101 0.583 0.272 0.807l-0.002-0.003c0.174 0.187 0.42 0.304 0.694 0.307h0.001zM93.552 29.223v-4.846c0.004-0.056 0.007-0.12 0.007-0.186 0-0.419-0.101-0.815-0.281-1.164l0.007 0.014c-0.176-0.253-0.465-0.417-0.792-0.417-0.027 0-0.053 0.001-0.079 0.003l0.003-0c-0.007-0-0.016-0-0.025-0-0.191 0-0.376 0.029-0.549 0.084l0.013-0.004c-0.168 0.053-0.314 0.121-0.449 0.205l0.008-0.005c-0.126 0.080-0.235 0.168-0.334 0.267l-0 0-0.24 0.254v5.875h-1.335v-7.637h1.175v0.855c0.078-0.115 0.157-0.215 0.242-0.309l-0.002 0.002c0.118-0.13 0.249-0.245 0.393-0.342l0.008-0.005c0.161-0.112 0.347-0.207 0.545-0.276l0.016-0.005c0.201-0.068 0.432-0.107 0.673-0.107 0.017 0 0.034 0 0.051 0.001l-0.002-0c0.046-0.004 0.099-0.006 0.152-0.006 0.73 0 1.364 0.409 1.685 1.011l0.005 0.010c0.094-0.129 0.195-0.243 0.306-0.346l0.001-0.001c0.13-0.124 0.274-0.234 0.43-0.328l0.011-0.006c0.165-0.096 0.355-0.178 0.556-0.236l0.018-0.004c0.2-0.059 0.43-0.094 0.668-0.094 0.009 0 0.019 0 0.028 0h-0.001q2.323 0 2.323 2.67v5.14h-1.335v-4.913c0.004-0.051 0.007-0.11 0.007-0.17 0-0.433-0.127-0.835-0.346-1.173l0.005 0.009c-0.219-0.256-0.543-0.417-0.904-0.417-0.030 0-0.059 0.001-0.088 0.003l0.004-0c-0.013-0-0.029-0.001-0.045-0.001-0.318 0-0.613 0.1-0.854 0.271l0.005-0.003c-0.21 0.149-0.394 0.311-0.558 0.491l-0.002 0.003c0.003 0.056 0.005 0.121 0.005 0.187s-0.002 0.131-0.005 0.196l0-0.009q0 0.2 0 0.427v5.1h-1.335zM102.056 29.223h-1.335v-7.557h1.335v7.623zM101.415 19.824c-0.013 0.001-0.028 0.001-0.043 0.001-0.235 0-0.446-0.098-0.597-0.255l-0-0c-0.15-0.165-0.241-0.385-0.241-0.627 0-0.014 0-0.029 0.001-0.043l-0 0.002c-0-0.011-0.001-0.025-0.001-0.038 0-0.238 0.092-0.455 0.242-0.617l-0.001 0.001c0.152-0.187 0.383-0.306 0.641-0.307h0c0.007-0 0.015-0 0.023-0 0.232 0 0.442 0.097 0.591 0.254l0 0c0.149 0.161 0.241 0.378 0.241 0.616 0 0.013-0 0.027-0.001 0.040l0-0.002c0.001 0.012 0.001 0.027 0.001 0.041 0 0.241-0.092 0.462-0.242 0.627l0.001-0.001c-0.146 0.182-0.366 0.3-0.613 0.307h-0.001zM105.287 27.514c-0.003 0.032-0.005 0.070-0.005 0.108 0 0.205 0.051 0.398 0.141 0.566l-0.003-0.006c0.099 0.117 0.245 0.19 0.409 0.19 0.021 0 0.041-0.001 0.061-0.004l-0.002 0h0.481l0.107 0.948-0.347 0.133c-0.184 0.052-0.395 0.081-0.614 0.081-0.024 0-0.047-0-0.071-0.001l0.003 0c-0.020 0.001-0.043 0.002-0.067 0.002-0.385 0-0.733-0.153-0.988-0.402l0 0c-0.257-0.33-0.412-0.751-0.412-1.207 0-0.073 0.004-0.146 0.012-0.217l-0.001 0.009v-9.653l1.335-0.147v9.599zM108.932 29.29h-1.242v-7.623h1.335v7.623zM108.291 19.824c-0.001 0-0.003 0-0.004 0-0.234 0-0.446-0.097-0.596-0.253l-0-0c-0.15-0.165-0.241-0.385-0.241-0.627 0-0.014 0-0.029 0.001-0.043l-0 0.002c-0-0.011-0.001-0.025-0.001-0.038 0-0.238 0.092-0.455 0.242-0.617l-0.001 0.001c0.144-0.178 0.358-0.294 0.599-0.307l0.002-0c0.007-0 0.015-0 0.023-0 0.232 0 0.442 0.097 0.591 0.254l0 0c0.149 0.161 0.241 0.378 0.241 0.616 0 0.013-0 0.027-0.001 0.040l0-0.002c0.001 0.012 0.001 0.027 0.001 0.041 0 0.241-0.092 0.462-0.242 0.627l0.001-0.001c-0.146 0.182-0.366 0.3-0.613 0.307h-0.001zM115.794 24.243q0 0.494 0 0.855t0 0.627h-3.992c-0.001 0.030-0.001 0.064-0.001 0.099 0 0.705 0.215 1.36 0.583 1.902l-0.008-0.012c0.333 0.395 0.828 0.644 1.381 0.644 0.036 0 0.071-0.001 0.106-0.003l-0.005 0c0.006 0 0.014 0 0.021 0 0.206 0 0.406-0.029 0.595-0.084l-0.015 0.004c0.308-0.089 0.575-0.231 0.805-0.417l-0.004 0.003 0.2-0.174 0.481 0.935-0.24 0.187c-0.125 0.116-0.265 0.217-0.416 0.302l-0.011 0.006c-0.191 0.106-0.413 0.197-0.646 0.262l-0.022 0.005c-0.258 0.068-0.555 0.108-0.861 0.108-0.026 0-0.052-0-0.078-0.001l0.004 0c-0.024 0.001-0.053 0.001-0.081 0.001-0.452 0-0.883-0.089-1.276-0.249l0.023 0.008c-0.397-0.163-0.729-0.414-0.984-0.73l-0.004-0.005c-0.288-0.377-0.505-0.824-0.623-1.311l-0.005-0.024c-0.145-0.519-0.228-1.115-0.228-1.73 0-0.044 0-0.088 0.001-0.132l-0 0.007c-0.001-0.039-0.001-0.086-0.001-0.133 0-0.581 0.083-1.141 0.239-1.672l-0.011 0.042c0.137-0.466 0.352-0.872 0.633-1.222l-0.005 0.007c0.246-0.301 0.554-0.54 0.906-0.701l0.016-0.006c0.324-0.144 0.702-0.227 1.1-0.227 0.008 0 0.015 0 0.023 0h-0.001c0.036-0.002 0.078-0.003 0.12-0.003 0.632 0 1.202 0.268 1.601 0.696l0.001 0.001c0.429 0.517 0.689 1.188 0.689 1.919 0 0.076-0.003 0.152-0.008 0.227l0.001-0.010zM113.378 22.521c-0.452 0.001-0.851 0.226-1.092 0.57l-0.003 0.004c-0.3 0.469-0.479 1.041-0.481 1.655v0h2.777c0.002-0.034 0.004-0.074 0.004-0.113s-0.001-0.080-0.004-0.119l0 0.005q0-0.147 0-0.32c0.002-0.035 0.003-0.076 0.003-0.117 0-0.413-0.121-0.797-0.329-1.119l0.005 0.008c-0.196-0.276-0.514-0.454-0.874-0.454-0.003 0-0.005 0-0.008 0h0zM117.303 28.382c-0.002-0.020-0.003-0.043-0.003-0.066 0-0.225 0.093-0.429 0.243-0.575l0-0c0.15-0.133 0.348-0.214 0.565-0.214 0.003 0 0.006 0 0.009 0h-0c0.005-0 0.011-0 0.017-0 0.306 0 0.577 0.152 0.742 0.385l0.002 0.003c0.188 0.292 0.299 0.648 0.299 1.030 0 0.051-0.002 0.101-0.006 0.151l0-0.007c0.001 0.021 0.001 0.046 0.001 0.070 0 0.315-0.059 0.617-0.167 0.895l0.006-0.017c-0.111 0.268-0.26 0.498-0.442 0.696l0.001-0.002c-0.173 0.186-0.37 0.346-0.589 0.474l-0.012 0.007c-0.183 0.113-0.394 0.216-0.615 0.299l-0.025 0.008-0.294-0.561c0.317-0.159 0.587-0.365 0.813-0.612l0.002-0.002c0.217-0.279 0.347-0.634 0.347-1.019 0-0.012-0-0.025-0-0.037v0.002c-0.005 0-0.012 0-0.019 0-0.229 0-0.438-0.086-0.596-0.228l0.001 0.001c-0.173-0.159-0.281-0.387-0.281-0.64 0-0.015 0-0.029 0.001-0.043l-0 0.002zM128.318 20.011l-0.214-0.187c-0.112-0.084-0.239-0.16-0.374-0.222l-0.013-0.005c-0.151-0.072-0.329-0.136-0.514-0.183l-0.020-0.004c-0.209-0.071-0.45-0.119-0.7-0.133l-0.007-0c-0.030-0.002-0.065-0.004-0.1-0.004-0.38 0-0.726 0.149-0.982 0.391l0.001-0.001c-0.216 0.223-0.35 0.528-0.35 0.864 0 0.029 0.001 0.059 0.003 0.088l-0-0.004c0 0.21 0.034 0.412 0.097 0.601l-0.004-0.013c0.067 0.204 0.158 0.381 0.271 0.54l-0.004-0.006c0.14 0.194 0.289 0.364 0.452 0.519l0.002 0.001c0.2 0.19 0.413 0.373 0.635 0.546l0.019 0.014 0.895 0.734q0.387 0.32 0.721 0.654c0.216 0.21 0.41 0.442 0.578 0.692l0.010 0.016c0.155 0.234 0.287 0.504 0.38 0.791l0.007 0.024c0.093 0.284 0.147 0.61 0.147 0.949 0 0.009 0 0.018-0 0.027v-0.001c0.003 0.043 0.004 0.094 0.004 0.145 0 0.736-0.297 1.402-0.778 1.884l0-0c-0.544 0.485-1.266 0.782-2.057 0.782-0.075 0-0.149-0.003-0.222-0.008l0.010 0.001c-0.022 0-0.049 0.001-0.076 0.001-0.342 0-0.675-0.039-0.995-0.113l0.030 0.006c-0.301-0.070-0.564-0.162-0.813-0.278l0.025 0.011c-0.215-0.097-0.399-0.204-0.571-0.327l0.010 0.007-0.334-0.28 0.561-1.202 0.28 0.254c0.137 0.112 0.29 0.218 0.451 0.312l0.017 0.009c0.176 0.102 0.379 0.193 0.592 0.261l0.022 0.006c0.216 0.068 0.465 0.107 0.722 0.107 0.018 0 0.037-0 0.055-0.001l-0.003 0c0.035 0.003 0.077 0.004 0.118 0.004 0.428 0 0.821-0.153 1.126-0.407l-0.003 0.002c0.264-0.239 0.432-0.58 0.441-0.96v-0.002c-0.015-0.244-0.067-0.471-0.152-0.682l0.005 0.015c-0.065-0.209-0.151-0.39-0.259-0.556l0.005 0.009c-0.128-0.196-0.269-0.366-0.427-0.52l-0.001-0.001q-0.254-0.254-0.601-0.534l-0.895-0.748q-0.467-0.387-0.814-0.721c-0.222-0.214-0.42-0.45-0.591-0.705l-0.010-0.016c-0.156-0.234-0.284-0.505-0.369-0.793l-0.005-0.021c-0.038-0.196-0.060-0.422-0.060-0.653 0-0.132 0.007-0.262 0.021-0.39l-0.001 0.016c0-0.005-0-0.011-0-0.016 0-0.351 0.074-0.685 0.206-0.987l-0.006 0.016c0.133-0.315 0.323-0.582 0.559-0.8l0.002-0.001c0.248-0.221 0.541-0.398 0.863-0.515l0.019-0.006c0.329-0.119 0.709-0.187 1.105-0.187 0.020 0 0.040 0 0.060 0.001l-0.003-0c0.009-0 0.019-0 0.029-0 0.326 0 0.643 0.039 0.947 0.113l-0.027-0.006c0.273 0.066 0.508 0.149 0.733 0.251l-0.026-0.010c0.178 0.080 0.332 0.173 0.472 0.284l-0.005-0.004 0.267 0.2zM135.728 24.243q0 0.494 0 0.855t0 0.627h-4.005c-0.001 0.030-0.001 0.064-0.001 0.099 0 0.705 0.215 1.36 0.583 1.902l-0.008-0.012c0.333 0.395 0.828 0.644 1.381 0.644 0.036 0 0.071-0.001 0.106-0.003l-0.005 0c0.22-0.001 0.431-0.035 0.629-0.098l-0.015 0.004c0.308-0.089 0.575-0.231 0.805-0.417l-0.004 0.003 0.2-0.174 0.427 0.948-0.24 0.227c-0.125 0.116-0.265 0.217-0.416 0.302l-0.011 0.006c-0.191 0.106-0.413 0.197-0.646 0.262l-0.022 0.005c-0.258 0.068-0.555 0.108-0.861 0.108-0.026 0-0.052-0-0.078-0.001l0.004 0c-0.024 0.001-0.053 0.001-0.081 0.001-0.452 0-0.883-0.089-1.276-0.249l0.023 0.008c-0.397-0.163-0.729-0.414-0.984-0.73l-0.004-0.005c-0.288-0.377-0.505-0.824-0.623-1.311l-0.005-0.024c-0.137-0.505-0.215-1.085-0.215-1.683 0-0.056 0.001-0.112 0.002-0.168l-0 0.008c-0.001-0.039-0.001-0.086-0.001-0.133 0-0.581 0.083-1.141 0.239-1.672l-0.011 0.042c0.137-0.466 0.352-0.872 0.633-1.222l-0.005 0.007c0.246-0.301 0.554-0.54 0.906-0.701l0.016-0.006c0.324-0.144 0.702-0.227 1.1-0.227 0.008 0 0.015 0 0.023 0h-0.001c0.036-0.002 0.078-0.003 0.12-0.003 0.632 0 1.202 0.268 1.601 0.696l0.001 0.001c0.45 0.524 0.723 1.21 0.723 1.96 0 0.043-0.001 0.086-0.003 0.129l0-0.006zM133.311 22.521c-0.452 0.001-0.851 0.226-1.092 0.57l-0.003 0.004c-0.304 0.468-0.488 1.040-0.494 1.654v0.002h2.67c0.002-0.034 0.004-0.074 0.004-0.113s-0.001-0.080-0.004-0.119l0 0.005q0-0.147 0-0.32c0.002-0.035 0.003-0.076 0.003-0.117 0-0.413-0.121-0.797-0.329-1.119l0.005 0.008c-0.187-0.264-0.485-0.439-0.825-0.454l-0.002-0zM141.602 29.29v-4.913c0.003-0.046 0.005-0.099 0.005-0.153 0-0.436-0.121-0.845-0.331-1.193l0.006 0.010c-0.217-0.263-0.543-0.43-0.909-0.43-0.028 0-0.056 0.001-0.083 0.003l0.004-0c-0.017-0.001-0.037-0.001-0.058-0.001-0.334 0-0.642 0.105-0.895 0.285l0.005-0.003c-0.226 0.167-0.423 0.351-0.597 0.556l-0.004 0.005v5.875h-1.335v-7.664h1.175v0.855c0.060-0.106 0.126-0.198 0.202-0.282l-0.001 0.001c0.12-0.132 0.256-0.247 0.406-0.342l0.008-0.005c0.173-0.112 0.371-0.212 0.581-0.287l0.020-0.006c0.23-0.085 0.497-0.134 0.774-0.134 0.009 0 0.019 0 0.028 0h-0.001c0.014-0 0.030-0 0.047-0 0.313 0 0.614 0.054 0.893 0.153l-0.019-0.006c0.277 0.102 0.511 0.267 0.692 0.478l0.002 0.002c0.198 0.244 0.35 0.534 0.437 0.851l0.004 0.016c0.103 0.364 0.162 0.783 0.162 1.215 0 0.042-0.001 0.084-0.002 0.126l0-0.006v4.993h-1.335zM146.102 29.29h-1.335v-7.623h1.335v7.623zM145.461 19.824c-0.013 0.001-0.028 0.001-0.043 0.001-0.235 0-0.446-0.098-0.597-0.255l-0-0c-0.15-0.165-0.241-0.385-0.241-0.627 0-0.014 0-0.029 0.001-0.043l-0 0.002c-0-0.011-0.001-0.025-0.001-0.038 0-0.238 0.092-0.455 0.242-0.617l-0.001 0.001c0.151-0.157 0.363-0.255 0.597-0.255 0.015 0 0.030 0 0.046 0.001l-0.002-0c0.007-0 0.015-0 0.023-0 0.232 0 0.442 0.097 0.591 0.254l0 0c0.149 0.161 0.241 0.378 0.241 0.616 0 0.013-0 0.027-0.001 0.040l0-0.002c0.001 0.012 0.001 0.027 0.001 0.041 0 0.241-0.092 0.462-0.242 0.627l0.001-0.001c-0.149 0.158-0.36 0.257-0.594 0.257-0.026 0-0.052-0.001-0.077-0.004l0.003 0zM147.717 25.485c-0.001-0.042-0.002-0.092-0.002-0.141 0-0.597 0.088-1.173 0.253-1.717l-0.011 0.042c0.146-0.478 0.375-0.892 0.672-1.247l-0.004 0.005c0.262-0.307 0.588-0.551 0.957-0.714l0.017-0.007c0.347-0.146 0.751-0.231 1.175-0.231s0.828 0.085 1.195 0.239l-0.020-0.008c0.375 0.167 0.688 0.412 0.931 0.716l0.004 0.005c0.277 0.351 0.492 0.766 0.621 1.216l0.006 0.025c0.145 0.504 0.228 1.083 0.228 1.681 0 0.047-0.001 0.095-0.002 0.142l0-0.007c0.001 0.036 0.001 0.078 0.001 0.12 0 0.609-0.088 1.197-0.253 1.753l0.011-0.044c-0.14 0.478-0.364 0.893-0.659 1.247l0.005-0.006c-0.26 0.305-0.587 0.546-0.958 0.701l-0.017 0.006c-0.347 0.144-0.749 0.227-1.172 0.227-0.001 0-0.002 0-0.003 0h0c-0.006 0-0.012 0-0.019 0-0.417 0-0.814-0.083-1.176-0.234l0.020 0.007c-0.375-0.16-0.689-0.401-0.931-0.703l-0.004-0.005c-0.277-0.351-0.492-0.766-0.621-1.216l-0.006-0.025c-0.18-0.549-0.287-1.182-0.294-1.839v-0.004zM152.403 25.485c0.008-0.095 0.012-0.205 0.012-0.316 0-0.693-0.167-1.347-0.463-1.924l0.011 0.024c-0.231-0.418-0.669-0.696-1.172-0.696-0.024 0-0.049 0.001-0.073 0.002l0.003-0c-0.017-0.001-0.037-0.001-0.056-0.001-0.503 0-0.941 0.278-1.168 0.689l-0.004 0.007c-0.285 0.558-0.451 1.217-0.451 1.914 0 0.106 0.004 0.212 0.011 0.316l-0.001-0.014c-0.008 0.096-0.012 0.207-0.012 0.32 0 0.683 0.168 1.327 0.464 1.893l-0.011-0.022c0.254 0.404 0.697 0.668 1.202 0.668 0.014 0 0.028-0 0.042-0.001l-0.002 0c0.021 0.001 0.046 0.002 0.071 0.002 0.492 0 0.922-0.267 1.154-0.663l0.003-0.006c0.257-0.525 0.407-1.142 0.407-1.794 0-0.144-0.007-0.287-0.022-0.427l0.001 0.018zM158.705 22.815l-0.28-0.107c-0.064-0.009-0.138-0.015-0.214-0.015s-0.149 0.005-0.222 0.016l0.008-0.001c-0.023-0.001-0.050-0.002-0.078-0.002-0.333 0-0.638 0.122-0.872 0.324l0.002-0.001c-0.207 0.193-0.371 0.429-0.476 0.695l-0.005 0.013v5.554h-1.335v-7.623h1.175v1.028c0.059-0.17 0.126-0.315 0.207-0.452l-0.006 0.012c0.088-0.149 0.195-0.277 0.319-0.386l0.002-0.001c0.128-0.113 0.279-0.203 0.444-0.264l0.010-0.003c0.173-0.060 0.373-0.094 0.581-0.094 0.016 0 0.033 0 0.049 0.001l-0.002-0c0.066-0.009 0.143-0.015 0.22-0.015s0.154 0.005 0.229 0.016l-0.009-0.001 0.267 0.080zM164.673 24.256q0 0.494 0 0.855t0 0.627h-3.899c-0.001 0.030-0.001 0.064-0.001 0.099 0 0.705 0.215 1.36 0.583 1.902l-0.008-0.012c0.333 0.395 0.828 0.644 1.381 0.644 0.036 0 0.071-0.001 0.106-0.003l-0.005 0c0.006 0 0.014 0 0.021 0 0.206 0 0.406-0.029 0.595-0.084l-0.015 0.004c0.308-0.089 0.575-0.231 0.805-0.417l-0.004 0.003 0.2-0.174 0.36 0.921-0.24 0.227c-0.125 0.116-0.265 0.217-0.416 0.302l-0.011 0.006c-0.191 0.106-0.413 0.197-0.646 0.262l-0.022 0.005c-0.258 0.068-0.555 0.108-0.861 0.108-0.026 0-0.052-0-0.078-0.001l0.004 0c-0.024 0.001-0.053 0.001-0.081 0.001-0.452 0-0.883-0.089-1.276-0.249l0.023 0.008c-0.397-0.163-0.729-0.414-0.984-0.73l-0.004-0.005c-0.288-0.377-0.505-0.824-0.623-1.311l-0.005-0.024c-0.145-0.519-0.228-1.115-0.228-1.73 0-0.044 0-0.088 0.001-0.132l-0 0.007c-0.001-0.039-0.001-0.086-0.001-0.133 0-0.581 0.083-1.141 0.239-1.672l-0.011 0.042c0.137-0.466 0.352-0.872 0.633-1.222l-0.005 0.007c0.246-0.301 0.554-0.54 0.906-0.701l0.016-0.006c0.324-0.144 0.702-0.227 1.1-0.227 0.008 0 0.015 0 0.023 0h-0.001c0.036-0.002 0.078-0.003 0.12-0.003 0.632 0 1.202 0.268 1.601 0.696l0.001 0.001c0.42 0.514 0.674 1.178 0.674 1.901 0 0.069-0.002 0.137-0.007 0.205l0-0.009zM162.256 22.534c-0.452 0.001-0.851 0.226-1.092 0.57l-0.003 0.004c-0.3 0.469-0.479 1.041-0.481 1.655v0h2.777c0.002-0.034 0.004-0.073 0.004-0.113s-0.001-0.080-0.004-0.119l0 0.005q0-0.147 0-0.32c0.002-0.035 0.003-0.076 0.003-0.117 0-0.413-0.121-0.797-0.329-1.119l0.005 0.008c-0.195-0.284-0.518-0.468-0.884-0.468-0.013 0-0.026 0-0.040 0.001l0.002-0zM170.441 29.29v-4.913c0.003-0.046 0.005-0.099 0.005-0.153 0-0.436-0.121-0.845-0.331-1.193l0.006 0.010c-0.217-0.263-0.543-0.43-0.909-0.43-0.028 0-0.056 0.001-0.083 0.003l0.004-0c-0.017-0.001-0.037-0.001-0.058-0.001-0.334 0-0.642 0.105-0.895 0.285l0.005-0.003c-0.226 0.167-0.423 0.351-0.597 0.556l-0.004 0.005v5.875h-1.335v-7.664h1.175v0.855c0.060-0.106 0.126-0.198 0.202-0.282l-0.001 0.001c0.157-0.12 0.338-0.22 0.533-0.289l0.014-0.004c0.173-0.112 0.371-0.212 0.581-0.287l0.020-0.006c0.23-0.085 0.497-0.134 0.774-0.134 0.009 0 0.019 0 0.028 0h-0.001c0.014-0 0.030-0 0.047-0 0.313 0 0.614 0.054 0.893 0.153l-0.019-0.006c0.277 0.102 0.511 0.267 0.692 0.478l0.002 0.002c0.198 0.244 0.35 0.534 0.437 0.851l0.004 0.016c0.103 0.364 0.162 0.783 0.162 1.215 0 0.042-0.001 0.084-0.002 0.126l0-0.006v4.94h-1.335zM173.445 28.382c-0.002-0.020-0.003-0.043-0.003-0.066 0-0.225 0.093-0.429 0.243-0.575l0-0c0.15-0.133 0.348-0.214 0.565-0.214 0.003 0 0.006 0 0.009 0h-0c0.005-0 0.011-0 0.017-0 0.306 0 0.578 0.152 0.742 0.385l0.002 0.003c0.188 0.292 0.299 0.648 0.299 1.030 0 0.051-0.002 0.101-0.006 0.151l0-0.007c0.001 0.021 0.001 0.046 0.001 0.070 0 0.315-0.059 0.617-0.167 0.895l0.006-0.017c-0.111 0.268-0.26 0.498-0.442 0.696l0.001-0.002c-0.173 0.186-0.37 0.346-0.589 0.474l-0.012 0.007c-0.183 0.113-0.394 0.216-0.615 0.299l-0.025 0.008-0.267-0.561c0.317-0.159 0.587-0.365 0.813-0.612l0.002-0.002c0.252-0.279 0.412-0.647 0.427-1.052l0-0.003c-0.005 0-0.012 0-0.019 0-0.229 0-0.438-0.086-0.596-0.228l0.001 0.001c-0.196-0.16-0.32-0.402-0.32-0.673 0-0.003 0-0.005 0-0.008v0zM180.307 29.29v-10.961h5.34l-0.093 1.095h-3.912v4.005h3.605v1.188h-3.605v4.673h-1.335zM190.32 22.788l-0.2-0.080c-0.064-0.009-0.138-0.015-0.214-0.015s-0.149 0.005-0.222 0.016l0.008-0.001c-0.023-0.001-0.050-0.002-0.078-0.002-0.333 0-0.638 0.122-0.872 0.324l0.002-0.001c-0.207 0.193-0.371 0.429-0.476 0.695l-0.005 0.013v5.554h-1.335v-7.623h1.175v1.028c0.059-0.17 0.126-0.315 0.207-0.452l-0.006 0.012c0.088-0.149 0.195-0.277 0.319-0.386l0.002-0.001c0.128-0.113 0.279-0.203 0.444-0.264l0.010-0.003c0.173-0.060 0.373-0.094 0.581-0.094 0.016 0 0.033 0 0.049 0.001l-0.002-0c0.066-0.009 0.143-0.015 0.22-0.015s0.154 0.005 0.229 0.016l-0.009-0.001 0.267 0.080zM191.135 27.287c-0.001-0.023-0.001-0.049-0.001-0.076 0-0.378 0.094-0.733 0.261-1.044l-0.006 0.012c0.169-0.295 0.399-0.537 0.673-0.716l0.008-0.005c0.291-0.187 0.631-0.326 0.996-0.398l0.018-0.003c0.363-0.076 0.779-0.12 1.206-0.12 0.008 0 0.015 0 0.023 0h0.399v-0.668c0.007-0.060 0.010-0.131 0.010-0.202 0-0.424-0.134-0.818-0.362-1.14l0.004 0.006c-0.227-0.224-0.538-0.363-0.883-0.363-0.028 0-0.055 0.001-0.082 0.003l0.004-0c-0.020-0.001-0.044-0.001-0.068-0.001-0.325 0-0.628 0.090-0.888 0.246l0.008-0.004c-0.248 0.153-0.462 0.307-0.664 0.475l0.009-0.008-0.534-0.855 0.32-0.28c0.14-0.113 0.298-0.215 0.465-0.3l0.015-0.007c0.186-0.094 0.404-0.176 0.631-0.235l0.023-0.005c0.234-0.060 0.503-0.094 0.779-0.094 0.017 0 0.034 0 0.051 0h-0.003c0.048-0.004 0.103-0.005 0.159-0.005 0.629 0 1.2 0.252 1.617 0.66l-0-0c0.383 0.502 0.613 1.138 0.613 1.827 0 0.095-0.004 0.188-0.013 0.281l0.001-0.012v3.485q0 0.494 0 0.961c-0.005 0.094-0.008 0.203-0.008 0.314s0.003 0.22 0.009 0.329l-0.001-0.015h-1.228v-0.841c-0.058 0.123-0.12 0.228-0.191 0.326l0.004-0.006c-0.092 0.128-0.197 0.238-0.317 0.331l-0.004 0.003c-0.135 0.105-0.289 0.195-0.454 0.262l-0.013 0.005c-0.175 0.068-0.378 0.108-0.589 0.108-0.018 0-0.036-0-0.054-0.001l0.003 0c-0.003 0-0.007 0-0.011 0-0.285 0-0.557-0.059-0.804-0.165l0.013 0.005c-0.499-0.214-0.885-0.613-1.077-1.108l-0.005-0.014c-0.056-0.19-0.088-0.409-0.088-0.635 0-0.11 0.008-0.219 0.022-0.326l-0.001 0.012zM193.444 28.315c0.007 0 0.016 0 0.024 0 0.164 0 0.32-0.029 0.465-0.083l-0.009 0.003c0.138-0.050 0.257-0.113 0.365-0.19l-0.005 0.003c0.097-0.069 0.18-0.149 0.252-0.238l0.002-0.002 0.187-0.227v-1.629h-0.414c-0.487 0.001-0.947 0.119-1.352 0.328l0.017-0.008c-0.291 0.175-0.483 0.49-0.483 0.849 0 0.025 0.001 0.050 0.003 0.075l-0-0.003c-0.001 0.023-0.002 0.050-0.002 0.077 0 0.303 0.101 0.583 0.272 0.807l-0.002-0.003c0.168 0.181 0.403 0.296 0.666 0.307l0.002 0zM203.257 29.223h-1.175v-0.788c-0.060 0.106-0.126 0.198-0.202 0.282l0.001-0.001c-0.117 0.131-0.249 0.246-0.393 0.342l-0.007 0.005c-0.173 0.115-0.372 0.214-0.582 0.288l-0.019 0.006c-0.228 0.085-0.492 0.134-0.767 0.134-0.003 0-0.005 0-0.008 0h0c-0.010 0-0.022 0-0.034 0-0.313 0-0.614-0.054-0.893-0.153l0.019 0.006c-0.277-0.102-0.511-0.267-0.692-0.478l-0.002-0.002c-0.2-0.243-0.353-0.534-0.437-0.852l-0.004-0.016c-0.095-0.359-0.149-0.771-0.149-1.195 0-0.049 0.001-0.098 0.002-0.147l-0 0.007v-4.993h1.335v4.913c-0.005 0.054-0.007 0.116-0.007 0.179 0 0.426 0.117 0.825 0.32 1.166l-0.006-0.010c0.21 0.248 0.521 0.404 0.868 0.404 0.033 0 0.065-0.001 0.097-0.004l-0.004 0c0.013 0 0.029 0.001 0.045 0.001 0.333 0 0.642-0.105 0.894-0.284l-0.005 0.003c0.227-0.161 0.424-0.342 0.597-0.543l0.004-0.004v-5.821h1.335v7.623zM210.12 24.176q0 0.494 0 0.855t0 0.627h-3.899c-0.001 0.030-0.001 0.064-0.001 0.099 0 0.705 0.215 1.36 0.583 1.902l-0.008-0.012c0.333 0.395 0.828 0.644 1.381 0.644 0.036 0 0.071-0.001 0.106-0.003l-0.005 0c0.006 0 0.014 0 0.021 0 0.206 0 0.406-0.029 0.595-0.084l-0.015 0.004c0.308-0.089 0.575-0.231 0.805-0.417l-0.004 0.003 0.2-0.174 0.387 1.001-0.24 0.227c-0.125 0.116-0.265 0.217-0.416 0.302l-0.011 0.006c-0.191 0.106-0.413 0.197-0.646 0.262l-0.022 0.005c-0.258 0.068-0.555 0.108-0.861 0.108-0.026 0-0.052-0-0.078-0.001l0.004 0c-0.024 0.001-0.053 0.001-0.081 0.001-0.452 0-0.883-0.089-1.276-0.249l0.023 0.008c-0.397-0.163-0.729-0.414-0.984-0.73l-0.004-0.005c-0.288-0.377-0.505-0.824-0.623-1.311l-0.005-0.024c-0.145-0.519-0.228-1.115-0.228-1.73 0-0.044 0-0.088 0.001-0.132l-0 0.007c-0.001-0.039-0.001-0.086-0.001-0.133 0-0.581 0.083-1.141 0.239-1.672l-0.011 0.042c0.137-0.466 0.352-0.872 0.633-1.222l-0.005 0.007c0.246-0.301 0.554-0.54 0.906-0.701l0.016-0.006c0.324-0.144 0.702-0.227 1.1-0.227 0.008 0 0.015 0 0.023 0h-0.001c0.036-0.002 0.078-0.003 0.12-0.003 0.632 0 1.202 0.268 1.601 0.696l0.001 0.001c0.427 0.517 0.686 1.186 0.686 1.916 0 0.063-0.002 0.126-0.006 0.189l0-0.009zM207.703 22.454c-0.452 0.001-0.851 0.226-1.092 0.57l-0.003 0.004c-0.3 0.469-0.479 1.041-0.481 1.655v0h2.777c0.002-0.034 0.004-0.074 0.004-0.113s-0.001-0.080-0.004-0.119l0 0.005q0-0.147 0-0.32c0.002-0.035 0.003-0.076 0.003-0.117 0-0.413-0.121-0.797-0.329-1.119l0.005 0.008c-0.197-0.238-0.493-0.389-0.824-0.389-0.020 0-0.040 0.001-0.060 0.002l0.003-0zM215.994 29.223v-4.846c0.003-0.046 0.005-0.099 0.005-0.153 0-0.436-0.121-0.845-0.331-1.193l0.006 0.010c-0.217-0.263-0.543-0.43-0.909-0.43-0.028 0-0.056 0.001-0.083 0.003l0.004-0c-0.017-0.001-0.037-0.001-0.058-0.001-0.334 0-0.642 0.105-0.895 0.285l0.005-0.003c-0.226 0.167-0.423 0.351-0.597 0.556l-0.004 0.005v5.875h-1.335v-7.664h1.175v0.855c0.060-0.106 0.126-0.198 0.202-0.282l-0.001 0.001c0.12-0.132 0.256-0.247 0.406-0.342l0.008-0.005c0.173-0.112 0.371-0.212 0.581-0.287l0.020-0.006c0.23-0.085 0.497-0.134 0.774-0.134 0.009 0 0.019 0 0.028 0h-0.001c0.014-0 0.030-0 0.047-0 0.313 0 0.614 0.054 0.893 0.153l-0.019-0.006c0.277 0.102 0.511 0.267 0.692 0.478l0.002 0.002c0.198 0.244 0.35 0.534 0.437 0.851l0.004 0.016c0.103 0.364 0.162 0.783 0.162 1.215 0 0.042-0.001 0.084-0.002 0.126l0-0.006v4.993h-1.335zM62.457 45.244h-1.242v-0.788c-0.060 0.106-0.126 0.198-0.202 0.282l0.001-0.001c-0.117 0.131-0.249 0.246-0.393 0.342l-0.007 0.005c-0.173 0.115-0.372 0.214-0.582 0.288l-0.019 0.006c-0.228 0.085-0.492 0.134-0.767 0.134-0.003 0-0.005 0-0.008 0h0c-0.011 0-0.024 0-0.036 0-0.327 0-0.641-0.059-0.93-0.166l0.018 0.006c-0.277-0.102-0.511-0.267-0.692-0.478l-0.002-0.002c-0.2-0.243-0.353-0.534-0.437-0.852l-0.004-0.016c-0.095-0.359-0.149-0.771-0.149-1.195 0-0.049 0.001-0.098 0.002-0.147l-0 0.007v-4.98h1.335v4.913c-0.005 0.054-0.007 0.116-0.007 0.179 0 0.426 0.117 0.825 0.32 1.166l-0.006-0.011c0.21 0.248 0.521 0.404 0.868 0.404 0.033 0 0.065-0.001 0.097-0.004l-0.004 0c0.013 0 0.029 0.001 0.045 0.001 0.333 0 0.642-0.105 0.894-0.284l-0.005 0.003c0.227-0.161 0.424-0.342 0.597-0.543l0.004-0.004v-5.821h1.335v7.623zM68.585 45.244v-4.846c0.003-0.046 0.005-0.099 0.005-0.153 0-0.436-0.121-0.845-0.331-1.193l0.006 0.010c-0.217-0.263-0.543-0.43-0.909-0.43-0.028 0-0.056 0.001-0.083 0.003l0.004-0c-0.017-0.001-0.037-0.001-0.058-0.001-0.334 0-0.642 0.105-0.895 0.285l0.005-0.003c-0.226 0.167-0.423 0.351-0.597 0.556l-0.004 0.005v5.875h-1.335v-7.664h1.175v0.855c0.060-0.106 0.126-0.198 0.202-0.282l-0.001 0.001c0.12-0.111 0.256-0.209 0.403-0.289l0.010-0.005c0.173-0.112 0.371-0.212 0.581-0.287l0.020-0.006c0.23-0.085 0.497-0.134 0.774-0.134 0.009 0 0.019 0 0.028 0h-0.001c0.014-0 0.030-0 0.047-0 0.313 0 0.614 0.054 0.893 0.153l-0.019-0.006c0.277 0.102 0.511 0.267 0.692 0.478l0.002 0.002c0.198 0.244 0.35 0.534 0.437 0.851l0.004 0.016c0.103 0.364 0.162 0.783 0.162 1.215 0 0.042-0.001 0.084-0.002 0.126l0-0.006v4.94h-1.335zM71.442 41.546c-0.008-0.112-0.013-0.243-0.013-0.375 0-0.533 0.078-1.047 0.223-1.532l-0.010 0.038c0.178-0.488 0.442-0.906 0.776-1.256l-0.001 0.001c0.293-0.303 0.656-0.537 1.063-0.675l0.019-0.006c0.358-0.124 0.771-0.198 1.2-0.2h0.001c0.096-0.010 0.208-0.016 0.32-0.016s0.224 0.006 0.334 0.017l-0.014-0.001c0.167 0.032 0.315 0.078 0.454 0.139l-0.014-0.005v-3.591l1.335-0.147v11.375h-1.175v-0.814c-0.055 0.102-0.112 0.189-0.177 0.271l0.003-0.004c-0.101 0.127-0.215 0.237-0.342 0.33l-0.005 0.004c-0.161 0.115-0.347 0.21-0.546 0.276l-0.015 0.004c-0.22 0.076-0.473 0.121-0.736 0.121-0.013 0-0.027-0-0.040-0h0.002c-0.028 0.001-0.061 0.002-0.094 0.002-0.367 0-0.716-0.079-1.030-0.222l0.016 0.006c-0.321-0.154-0.589-0.37-0.797-0.636l-0.004-0.005c-0.254-0.342-0.451-0.743-0.568-1.177l-0.006-0.025c-0.145-0.511-0.228-1.098-0.228-1.704 0-0.044 0-0.088 0.001-0.132l-0 0.007zM74.46 44.296c0.005 0 0.011 0 0.017 0 0.185 0 0.363-0.029 0.529-0.084l-0.012 0.003c0.158-0.052 0.295-0.12 0.42-0.204l-0.006 0.004c0.090-0.059 0.169-0.12 0.241-0.188l-0.001 0.001 0.187-0.227v-4.7c-0.115-0.072-0.247-0.135-0.387-0.183l-0.014-0.004c-0.159-0.051-0.343-0.081-0.533-0.081-0.014 0-0.029 0-0.043 0l0.002-0c-0.006-0-0.014-0-0.022-0-0.29 0-0.567 0.054-0.822 0.152l0.016-0.005c-0.274 0.107-0.503 0.276-0.679 0.491l-0.002 0.003c-0.201 0.257-0.357 0.56-0.45 0.89l-0.004 0.018c-0.102 0.371-0.161 0.797-0.161 1.236 0 0.035 0 0.069 0.001 0.104l-0-0.005c-0.001 0.037-0.001 0.081-0.001 0.126 0 0.429 0.049 0.846 0.142 1.247l-0.007-0.037c0.075 0.325 0.205 0.611 0.379 0.863l-0.005-0.008c0.137 0.197 0.317 0.355 0.526 0.464l0.008 0.004c0.181 0.104 0.395 0.171 0.623 0.187l0.004 0zM84.753 42.788c0.001 0.027 0.001 0.058 0.001 0.090 0 0.402-0.064 0.789-0.182 1.151l0.007-0.026c-0.103 0.317-0.267 0.59-0.482 0.815l0.001-0.001c-0.206 0.202-0.463 0.355-0.749 0.437l-0.013 0.003c-0.282 0.085-0.606 0.134-0.941 0.134-0.016 0-0.033-0-0.049-0h0.002c-0.015 0-0.033 0.001-0.051 0.001-0.211 0-0.414-0.034-0.603-0.098l0.013 0.004-0.347-0.147 0.227-1.148 0.267 0.134c0.066 0.012 0.142 0.019 0.22 0.019s0.154-0.007 0.228-0.021l-0.008 0.001c0.023 0.002 0.050 0.003 0.077 0.003 0.294 0 0.557-0.13 0.736-0.336l0.001-0.001c0.174-0.292 0.278-0.645 0.278-1.021 0-0.073-0.004-0.145-0.011-0.216l0.001 0.009v-8.224h1.335v8.505zM92.27 45.244h-1.228v-0.788c-0.060 0.106-0.126 0.198-0.202 0.282l0.001-0.001c-0.117 0.131-0.249 0.246-0.393 0.342l-0.007 0.005c-0.173 0.115-0.372 0.214-0.582 0.288l-0.019 0.006c-0.228 0.085-0.492 0.134-0.767 0.134-0.003 0-0.005 0-0.008 0h0c-0.010 0-0.022 0-0.034 0-0.313 0-0.614-0.054-0.893-0.153l0.019 0.006c-0.277-0.102-0.511-0.267-0.692-0.478l-0.002-0.002c-0.2-0.243-0.353-0.534-0.437-0.852l-0.004-0.016c-0.095-0.359-0.149-0.771-0.149-1.195 0-0.049 0.001-0.098 0.002-0.147l-0 0.007v-4.993h1.335v4.913c-0.005 0.054-0.007 0.116-0.007 0.179 0 0.426 0.117 0.825 0.32 1.166l-0.006-0.011c0.21 0.248 0.521 0.404 0.868 0.404 0.033 0 0.065-0.001 0.097-0.004l-0.004 0c0.013 0 0.029 0.001 0.045 0.001 0.333 0 0.642-0.105 0.894-0.284l-0.005 0.003c0.227-0.161 0.424-0.342 0.597-0.543l0.004-0.004v-5.821h1.335v7.623zM99.707 38.569h-1.015c0.226 0.377 0.361 0.832 0.361 1.318 0 0.006 0 0.012-0 0.018v-0.001c0 0.014 0 0.030 0 0.046 0 0.378-0.074 0.739-0.207 1.068l0.007-0.019c-0.094 0.378-0.27 0.706-0.509 0.977l0.002-0.002c-0.235 0.218-0.515 0.39-0.824 0.502l-0.017 0.005c-0.302 0.11-0.65 0.174-1.013 0.174-0.010 0-0.020-0-0.029-0h-0.452c-0.154 0.068-0.286 0.153-0.402 0.255l0.002-0.001c-0.123 0.106-0.201 0.262-0.201 0.436 0 0.011 0 0.022 0.001 0.032l-0-0.001c0 0.002-0 0.004-0 0.007 0 0.154 0.073 0.292 0.186 0.38l0.001 0.001c0.144 0.095 0.32 0.151 0.51 0.151 0.032 0 0.064-0.002 0.095-0.005l-0.004 0h0.975c0.016-0 0.034-0 0.052-0 0.337 0 0.664 0.039 0.978 0.113l-0.029-0.006c0.305 0.072 0.573 0.197 0.808 0.365l-0.007-0.005c0.226 0.162 0.406 0.373 0.53 0.618l0.004 0.010c0.119 0.251 0.188 0.545 0.188 0.856 0 0.023-0 0.046-0.001 0.069l0-0.003c0 0.004 0 0.009 0 0.014 0 0.404-0.099 0.786-0.273 1.121l0.006-0.013c-0.183 0.347-0.43 0.636-0.728 0.863l-0.006 0.005c-0.331 0.249-0.718 0.445-1.136 0.568l-0.025 0.006c-0.431 0.128-0.927 0.201-1.44 0.201-0.029 0-0.058-0-0.086-0.001l0.004 0c-0.057 0.004-0.125 0.006-0.192 0.006-0.625 0-1.203-0.203-1.672-0.546l0.008 0.006c-0.396-0.347-0.645-0.853-0.645-1.418 0-0.041 0.001-0.082 0.004-0.123l-0 0.006c-0-0.014-0.001-0.031-0.001-0.048 0-0.249 0.054-0.484 0.152-0.696l-0.004 0.010c0.101-0.204 0.221-0.38 0.362-0.536l-0.002 0.002c0.124-0.138 0.264-0.257 0.419-0.356l0.008-0.005 0.347-0.214c-0.303-0.229-0.496-0.588-0.496-0.993 0-0.026 0.001-0.053 0.002-0.079l-0 0.004c-0.013-0.064-0.021-0.138-0.021-0.214 0-0.129 0.022-0.253 0.063-0.368l-0.002 0.008c0.073-0.139 0.162-0.257 0.267-0.36l0-0c0.090-0.085 0.191-0.16 0.299-0.223l0.008-0.004 0.227-0.12c-0.4-0.187-0.724-0.481-0.942-0.845l-0.005-0.010c-0.228-0.395-0.362-0.87-0.362-1.375 0-0.037 0.001-0.075 0.002-0.112l-0 0.005c-0.001-0.022-0.001-0.047-0.001-0.073 0-0.378 0.074-0.738 0.208-1.067l-0.007 0.019c0.133-0.315 0.323-0.582 0.559-0.8l0.002-0.001c0.227-0.208 0.499-0.372 0.798-0.476l0.016-0.005c0.295-0.102 0.635-0.16 0.988-0.16 0.009 0 0.019 0 0.028 0h-0.001c0.010-0 0.021-0 0.033-0 0.354 0 0.691 0.069 1 0.194l-0.018-0.006h2.323zM96.168 44.951c-0.088 0.009-0.19 0.013-0.294 0.013s-0.206-0.005-0.307-0.014l0.013 0.001-0.28 0.187c-0.091 0.078-0.171 0.165-0.237 0.263l-0.003 0.005c-0.076 0.107-0.139 0.231-0.184 0.364l-0.003 0.010c-0.043 0.137-0.067 0.294-0.067 0.457 0 0.013 0 0.026 0 0.039v-0.002c-0.004 0.034-0.006 0.073-0.006 0.112 0 0.627 0.508 1.135 1.135 1.135 0.073 0 0.144-0.007 0.213-0.020l-0.007 0.001c0.066 0.006 0.142 0.009 0.22 0.009 0.561 0 1.082-0.173 1.512-0.469l-0.009 0.006c0.279-0.233 0.461-0.574 0.481-0.958l0-0.003c0.003-0.027 0.005-0.058 0.005-0.090 0-0.285-0.137-0.538-0.35-0.696l-0.002-0.002c-0.243-0.144-0.535-0.229-0.848-0.229-0.031 0-0.061 0.001-0.091 0.002l0.004-0h-0.961zM97.864 39.931c0.005-0.046 0.008-0.099 0.008-0.152 0-0.394-0.15-0.754-0.396-1.024l0.001 0.001c-0.236-0.215-0.552-0.347-0.898-0.347-0.003 0-0.007 0-0.010 0h0.001c-0.015-0.001-0.032-0.001-0.049-0.001-0.347 0-0.663 0.132-0.9 0.349l0.001-0.001c-0.248 0.322-0.397 0.731-0.397 1.175s0.149 0.853 0.401 1.179l-0.003-0.005c0.248 0.219 0.576 0.352 0.935 0.352s0.687-0.134 0.936-0.354l-0.001 0.001c0.195-0.253 0.313-0.575 0.313-0.924 0-0.046-0.002-0.091-0.006-0.136l0 0.006zM105.968 40.131q0 0.494 0 0.855t0 0.627h-4.045c-0.001 0.030-0.001 0.064-0.001 0.099 0 0.705 0.215 1.36 0.583 1.902l-0.008-0.012c0.333 0.395 0.828 0.644 1.381 0.644 0.036 0 0.071-0.001 0.106-0.003l-0.005 0c0.006 0 0.014 0 0.021 0 0.206 0 0.406-0.029 0.595-0.084l-0.015 0.004c0.308-0.089 0.575-0.231 0.805-0.417l-0.004 0.003 0.2-0.174 0.481 1.068-0.24 0.227c-0.125 0.116-0.265 0.217-0.416 0.302l-0.011 0.006c-0.191 0.106-0.413 0.197-0.646 0.262l-0.022 0.005c-0.258 0.068-0.555 0.108-0.861 0.108-0.026 0-0.052-0-0.078-0.001l0.004 0c-0.024 0.001-0.053 0.001-0.081 0.001-0.452 0-0.883-0.089-1.276-0.249l0.023 0.008c-0.397-0.163-0.729-0.414-0.984-0.73l-0.004-0.005c-0.288-0.377-0.505-0.824-0.623-1.311l-0.005-0.024c-0.145-0.519-0.228-1.115-0.228-1.73 0-0.044 0-0.088 0.001-0.132l-0 0.007c-0.001-0.039-0.001-0.086-0.001-0.133 0-0.581 0.083-1.141 0.239-1.672l-0.011 0.042c0.137-0.466 0.352-0.872 0.633-1.222l-0.005 0.007c0.246-0.301 0.554-0.54 0.906-0.701l0.016-0.006c0.324-0.144 0.702-0.227 1.1-0.227 0.008 0 0.015 0 0.023 0h-0.001c0.036-0.002 0.078-0.003 0.12-0.003 0.632 0 1.202 0.268 1.601 0.696l0.001 0.001c0.42 0.514 0.674 1.178 0.674 1.901 0 0.069-0.002 0.137-0.007 0.205l0-0.009zM103.552 38.409c-0.452 0.001-0.851 0.226-1.092 0.57l-0.003 0.004c-0.3 0.469-0.479 1.041-0.481 1.655v0h2.777c0.002-0.034 0.004-0.074 0.004-0.113s-0.001-0.080-0.004-0.119l0 0.005q0-0.147 0-0.32c0.002-0.035 0.003-0.076 0.003-0.117 0-0.413-0.121-0.797-0.329-1.119l0.005 0.008c-0.195-0.206-0.471-0.334-0.776-0.334-0.061 0-0.12 0.005-0.178 0.015l0.006-0.001zM111.843 45.177v-4.78c0.003-0.046 0.005-0.099 0.005-0.153 0-0.436-0.121-0.845-0.331-1.193l0.006 0.010c-0.217-0.263-0.543-0.43-0.909-0.43-0.028 0-0.056 0.001-0.083 0.003l0.004-0c-0.017-0.001-0.037-0.001-0.058-0.001-0.334 0-0.642 0.105-0.895 0.285l0.005-0.003c-0.226 0.167-0.423 0.351-0.597 0.556l-0.004 0.005v5.875h-1.335v-7.664h1.175v0.855c0.060-0.106 0.126-0.198 0.202-0.282l-0.001 0.001c0.124-0.112 0.264-0.21 0.416-0.289l0.011-0.005c0.173-0.112 0.371-0.212 0.581-0.287l0.020-0.006c0.23-0.085 0.497-0.133 0.774-0.133 0.005 0 0.010 0 0.014 0h-0.001c0.014-0 0.030-0 0.047-0 0.313 0 0.614 0.054 0.893 0.153l-0.019-0.006c0.277 0.102 0.511 0.267 0.692 0.478l0.002 0.002c0.198 0.244 0.35 0.534 0.437 0.851l0.004 0.016c0.103 0.364 0.162 0.783 0.162 1.215 0 0.042-0.001 0.084-0.002 0.126l0-0.006v4.94h-1.335zM114.7 41.479c-0.001-0.043-0.002-0.094-0.002-0.146 0-0.642 0.113-1.257 0.321-1.827l-0.012 0.037c0.17-0.433 0.405-0.805 0.697-1.124l-0.002 0.003c0.293-0.303 0.656-0.537 1.063-0.675l0.019-0.006c0.358-0.124 0.771-0.198 1.2-0.2h0.001c0.096-0.010 0.208-0.016 0.32-0.016s0.224 0.006 0.334 0.017l-0.014-0.001c0.167 0.032 0.315 0.078 0.454 0.139l-0.014-0.005v-3.591l1.335-0.147v11.375h-1.202v-0.814c-0.055 0.102-0.112 0.189-0.177 0.271l0.003-0.004c-0.101 0.127-0.215 0.237-0.342 0.33l-0.005 0.004c-0.161 0.115-0.347 0.21-0.546 0.276l-0.015 0.004c-0.22 0.076-0.473 0.121-0.736 0.121-0.013 0-0.027-0-0.040-0h0.002c-0.005 0-0.011 0-0.017 0-0.366 0-0.713-0.079-1.026-0.22l0.016 0.006c-0.352-0.143-0.648-0.362-0.878-0.637l-0.003-0.004c-0.254-0.342-0.451-0.743-0.568-1.177l-0.006-0.025c-0.137-0.497-0.216-1.069-0.216-1.658 0-0.060 0.001-0.12 0.002-0.18l-0 0.009zM117.717 44.23c0.005 0 0.011 0 0.017 0 0.185 0 0.363-0.029 0.529-0.084l-0.012 0.003c0.158-0.052 0.295-0.12 0.42-0.204l-0.006 0.004c0.11-0.073 0.207-0.152 0.294-0.24l0-0 0.187-0.227v-4.579c-0.115-0.072-0.247-0.135-0.387-0.183l-0.014-0.004c-0.159-0.051-0.343-0.081-0.533-0.081-0.014 0-0.029 0-0.043 0l0.002-0c-0.006-0-0.014-0-0.022-0-0.29 0-0.567 0.054-0.822 0.152l0.016-0.005c-0.274 0.107-0.503 0.276-0.679 0.491l-0.002 0.003c-0.201 0.257-0.357 0.56-0.45 0.89l-0.004 0.018c-0.102 0.371-0.161 0.797-0.161 1.236 0 0.035 0 0.069 0.001 0.104l-0-0.005c-0.001 0.037-0.001 0.081-0.001 0.126 0 0.429 0.049 0.846 0.142 1.247l-0.007-0.037c0.075 0.325 0.205 0.611 0.379 0.863l-0.005-0.008c0.137 0.197 0.317 0.355 0.526 0.464l0.008 0.004c0.165 0.097 0.36 0.163 0.567 0.186l0.007 0.001z"></path>
<path fill="#000" d="M22.243 12.387c0.009-0.138 0.014-0.299 0.014-0.461s-0.005-0.323-0.015-0.483l0.001 0.022c0-0.174 0-0.374 0-0.601 2.67 0 4.993-1.949 4.993-4.152-0.088-0.97-0.51-1.828-1.148-2.47l0 0h0.28c0.867 0.743 1.444 1.804 1.548 3.001l0.001 0.017c-0.295 2.891-2.716 5.127-5.66 5.127-0.005 0-0.010 0-0.015 0h0.001zM19.573 3.175c-0.051-0.3-0.168-0.567-0.337-0.792l0.003 0.005c0-0.267 0.12-0.534 0.561-0.32-0.055 0.096-0.087 0.211-0.087 0.334s0.032 0.238 0.089 0.337l-0.002-0.003c0.22-0.084 0.374-0.293 0.374-0.538 0-0.003 0-0.006-0-0.010v0c0.654 0.174 0.147 1.068-0.601 0.988zM18.959 4.59c-0.108-0.427-0.303-0.799-0.564-1.113l0.004 0.004c-0.269-0.349-0.68-0.578-1.145-0.601l-0.004-0c-0.328 0.024-0.632 0.1-0.913 0.221l0.018-0.007c-0.129-0.223-0.227-0.483-0.278-0.759l-0.002-0.015c0-0.2 0.32-0.387 0.948-0.387 1.335 0 2.203 0.627 2.203 1.669-0.024 0.37-0.125 0.711-0.287 1.015l0.006-0.013zM22.484 22.361c0.050-0.011 0.108-0.017 0.167-0.017s0.117 0.006 0.172 0.018l-0.005-0.001c0.604 1.222 1.266 2.273 2.021 3.247l-0.032-0.043c0.631-0.111 1.368-0.183 2.119-0.2l0.017-0c0.038-0.015 0.081-0.024 0.127-0.024s0.089 0.009 0.129 0.025l-0.002-0.001c0.051 0.063 0.082 0.145 0.082 0.233 0 0.012-0.001 0.024-0.002 0.035l0-0.001c-0.009 0.251-0.077 0.484-0.191 0.689l0.004-0.008c-0.328-0.283-0.758-0.456-1.228-0.456-0.085 0-0.168 0.006-0.25 0.016l0.010-0.001c-0.224 0.013-0.433 0.051-0.633 0.112l0.019-0.005h-0.093l0.427 0.414c0.536 0.401 0.952 0.934 1.206 1.551l0.009 0.024c-0.043 0.27-0.196 0.497-0.41 0.639l-0.004 0.002c-0.203-0.874-0.706-1.607-1.391-2.102l-0.011-0.007v0.24c0 0.16 0 0.414 0 0.668 0 1.335-0.134 1.495-0.587 1.495h-0.24c0.227-0.338 0.362-0.754 0.362-1.202 0-0.089-0.005-0.177-0.016-0.264l0.001 0.010v-0.574c-0.008-0.104-0.013-0.225-0.013-0.347s0.005-0.243 0.014-0.363l-0.001 0.016v-0.107h-0.093c-0.253-0.053-0.559-0.096-0.871-0.119l-0.024-0.001c-0.061-0.007-0.132-0.011-0.204-0.011-0.426 0-0.819 0.139-1.137 0.375l0.005-0.004c-0.21-0.154-0.363-0.376-0.426-0.633l-0.002-0.008c0-0.267 0.174-0.294 0.387-0.294h0.36c0.425 0.069 0.916 0.108 1.415 0.108 0.047 0 0.094-0 0.141-0.001l-0.007 0c-0.474-1.024-1.064-1.905-1.77-2.678l0.007 0.008c0-0 0-0.001 0-0.002 0-0.266 0.205-0.484 0.465-0.506l0.002-0zM14.233 25.485v0 0c0.040 0.001 0.087 0.001 0.134 0.001 0.499 0 0.99-0.039 1.468-0.115l-0.053 0.007h0.36c0.227 0 0.387 0 0.387 0.294-0.061 0.263-0.209 0.485-0.411 0.639l-0.003 0.002c-0.312-0.232-0.706-0.371-1.131-0.371-0.072 0-0.143 0.004-0.212 0.012l0.009-0.001c-0.328 0.009-0.642 0.037-0.949 0.085l0.041-0.005h-0.080v0.107c0.008 0.104 0.013 0.225 0.013 0.347s-0.005 0.243-0.014 0.363l0.001-0.016v0.601c-0.005 0.053-0.007 0.115-0.007 0.177 0 0.498 0.168 0.957 0.452 1.323l-0.004-0.005h-0.24c-0.454 0-0.587-0.2-0.587-1.495 0-0.267 0-0.507 0-0.667v-0.2c-0.696 0.502-1.199 1.235-1.397 2.085l-0.005 0.024c-0.223-0.141-0.381-0.369-0.426-0.635l-0.001-0.005c0.263-0.641 0.679-1.174 1.205-1.569l0.010-0.007 0.374-0.374h-0.12c-0.2-0.070-0.432-0.117-0.673-0.133l-0.008-0c-0.072-0.010-0.156-0.015-0.24-0.015-0.471 0-0.901 0.173-1.231 0.458l0.002-0.002c-0.11-0.197-0.178-0.43-0.187-0.678l-0-0.003c-0.001-0.010-0.001-0.022-0.001-0.034 0-0.089 0.031-0.17 0.082-0.234l-0.001 0.001c0.038-0.015 0.081-0.024 0.127-0.024s0.089 0.009 0.129 0.025l-0.002-0.001c0.768 0.017 1.505 0.089 2.225 0.213l-0.089-0.013c0.723-0.931 1.385-1.982 1.94-3.095l0.049-0.109c0.050-0.011 0.108-0.018 0.167-0.018s0.117 0.006 0.172 0.019l-0.005-0.001c0.262 0.021 0.467 0.24 0.467 0.506 0 0.001 0 0.001 0 0.002v-0c-0.698 0.765-1.289 1.646-1.736 2.606l-0.027 0.064zM10.121 7.261c0.054-1.229 0.597-2.321 1.439-3.094l0.003-0.003h0.28c-0.638 0.642-1.060 1.5-1.147 2.454l-0.001 0.016c0 2.23 2.376 4.165 5.073 4.165 0 0.187 0 0.387 0 0.601-0.008 0.138-0.013 0.299-0.013 0.461s0.005 0.323 0.014 0.483l-0.001-0.022c-2.918-0.003-5.321-2.202-5.645-5.034l-0.002-0.026zM30.561 11.92c0.619 1.292 1.916 2.169 3.418 2.169 0.207 0 0.411-0.017 0.609-0.049l-0.022 0.003c-1.054-0.839-1.942-1.833-2.642-2.955l-0.028-0.049-2.497-4.005c-0.258-1.289-0.905-2.397-1.811-3.227l-0.004-0.004c0.285-0.1 0.532-0.226 0.759-0.381l-0.011 0.007c-1.629 0-3.244-0.828-4.139-0.828-0.028-0.003-0.061-0.005-0.095-0.005-0.448 0-0.814 0.35-0.84 0.791l-0 0.002c0.143 0.595 0.67 1.031 1.3 1.031 0.074 0 0.146-0.006 0.216-0.017l-0.008 0.001c0.287-0.006 0.564-0.035 0.833-0.085l-0.032 0.005c0.542 0.618 0.888 1.419 0.934 2.3l0 0.009c0 1.749-2.096 3.111-4.206 3.111h-0.294c-0.408-0.561-0.699-1.233-0.824-1.961l-0.004-0.028c0-1.335 0.908-2.523 0.908-3.899-0.005-0.61-0.22-1.168-0.578-1.607l0.004 0.005c0.249-0.201 0.454-0.445 0.608-0.722l0.006-0.013c-0.137 0.046-0.295 0.072-0.459 0.072-0.045 0-0.090-0.002-0.134-0.006l0.006 0c-1.015 0-1.842-0.267-2.67-0.267-0.454 0-0.587 0.147-0.587 0.28-0.004 0.018-0.006 0.039-0.006 0.060s0.002 0.042 0.006 0.062l-0-0.002c-0.149-0.061-0.323-0.112-0.504-0.144l-0.016-0.002c-0.221-0.042-0.475-0.067-0.735-0.067-0.009 0-0.018 0-0.028 0h0.001c-0.975 0-1.335 0.414-1.335 0.761 0.072 0.475 0.246 0.9 0.5 1.265l-0.006-0.010c0.32-0.151 0.694-0.247 1.088-0.267l0.007-0c0.588 0.097 1.058 0.518 1.225 1.071l0.003 0.011c-0.116 0.010-0.251 0.016-0.387 0.016s-0.271-0.006-0.404-0.017l0.017 0.001c-0.629-0.025-1.222-0.145-1.776-0.347l0.041 0.013c0.146 0.338 0.438 0.59 0.793 0.679l0.008 0.002c0.553 0.174 1.205 0.31 1.876 0.383l0.047 0.004c-0.073 0.184-0.204 0.332-0.37 0.425l-0.004 0.002h-0.16c-0.706-0.13-1.333-0.325-1.926-0.583l0.057 0.022c0.388 0.703 1.020 1.232 1.78 1.476l0.022 0.006c-0.859 0.909-1.544 1.993-1.994 3.192l-0.022 0.066h-0.387c-2.109 0-4.206-1.335-4.206-3.111 0.047-0.89 0.393-1.692 0.938-2.314l-0.004 0.004c0.237 0.045 0.514 0.074 0.796 0.080l0.005 0c0.068 0.012 0.146 0.019 0.225 0.019 0.606 0 1.118-0.404 1.281-0.958l0.002-0.009c-0.026-0.443-0.392-0.793-0.84-0.793-0.033 0-0.066 0.002-0.099 0.006l0.004-0c-0.895 0-2.497 0.828-4.139 0.828 0.215 0.147 0.462 0.273 0.725 0.367l0.023 0.007c-0.918 0.836-1.57 1.949-1.823 3.207l-0.006 0.038-2.497 4.005c-0.728 1.171-1.616 2.165-2.647 2.986l-0.024 0.018c0.176 0.029 0.38 0.046 0.587 0.046 1.502 0 2.799-0.877 3.409-2.146l0.010-0.023 1.349-2.003c0.11 0.303 0.227 0.559 0.362 0.803l-0.014-0.028-2.537 4.019c-0.728 1.172-1.615 2.165-2.647 2.986l-0.024 0.018c0.176 0.029 0.38 0.046 0.587 0.046 1.502 0 2.799-0.877 3.409-2.146l0.010-0.023 2.323-3.498c0.107 0.174 0.267 0.334 0.454 0.494l-3.124 4.953c-0.722 1.194-1.611 2.206-2.648 3.040l-0.022 0.017c0.179 0.030 0.385 0.047 0.595 0.047 1.5 0 2.796-0.878 3.401-2.147l0.010-0.023 3.017-4.82 0.721 0.267-3.738 5.928c-0.727 1.172-1.615 2.166-2.647 2.986l-0.024 0.018c0.176 0.029 0.38 0.046 0.587 0.046 1.502 0 2.799-0.877 3.409-2.146l0.010-0.023 3.792-6.061 0.681 0.24-4.152 6.849c-0.728 1.171-1.616 2.165-2.647 2.986l-0.023 0.018c0.176 0.029 0.38 0.046 0.587 0.046 1.502 0 2.799-0.877 3.409-2.146l0.010-0.023 4.566-7.303h0.133c0.122 0.336 0.2 0.724 0.213 1.128l0 0.006c-0.222 2.422-1.465 4.516-3.289 5.872l-0.022 0.016c0.131 0.043 0.282 0.068 0.439 0.068 0.024 0 0.048-0.001 0.072-0.002l-0.003 0c0.118 0.011 0.255 0.017 0.394 0.017s0.276-0.006 0.411-0.018l-0.018 0.001c-0.556 1.076-1.145 1.998-1.808 2.861l0.033-0.044c-0.599-0.108-1.295-0.175-2.005-0.187l-0.011-0c-0.031-0.006-0.067-0.010-0.103-0.010-0.31 0-0.561 0.251-0.561 0.561 0 0.036 0.004 0.072 0.010 0.106l-0.001-0.004c-0 0.006-0 0.013-0 0.020 0 0.473 0.212 0.896 0.545 1.18l0.002 0.002c0.202-0.408 0.615-0.684 1.093-0.684 0.115 0 0.226 0.016 0.331 0.046l-0.009-0.002h0.174c-0.599 0.458-1.059 1.069-1.326 1.775l-0.009 0.028c0.052 0.58 0.514 1.036 1.091 1.081l0.004 0c-0.008-0.054-0.012-0.117-0.012-0.18s0.004-0.126 0.013-0.187l-0.001 0.007c0.111-0.627 0.418-1.169 0.853-1.574l0.002-0.002c-0.003 0.040-0.005 0.087-0.005 0.133s0.002 0.094 0.005 0.14l-0-0.006c0 1.242 0.107 1.816 0.895 1.816 0.285-0.010 0.545-0.114 0.75-0.282l-0.002 0.002c-0.325-0.31-0.527-0.746-0.527-1.229 0-0.118 0.012-0.233 0.035-0.344l-0.002 0.011c0-0.187 0-0.36 0-0.601 0.006-0.078 0.010-0.169 0.010-0.26s-0.004-0.182-0.011-0.272l0.001 0.012c0.092-0.008 0.199-0.013 0.307-0.013s0.215 0.005 0.321 0.014l-0.014-0.001c0.052-0.006 0.113-0.010 0.175-0.010 0.457 0 0.87 0.193 1.16 0.503l0.001 0.001c0.371-0.272 0.633-0.673 0.719-1.137l0.002-0.011c0-0.007 0-0.015 0-0.023 0-0.332-0.269-0.601-0.601-0.601-0.038 0-0.075 0.004-0.111 0.010l0.004-0.001c-0.214 0-0.908 0.133-1.482 0.133 0.454-0.79 0.931-1.471 1.461-2.106l-0.019 0.023c0.097 0.34 0.289 0.627 0.545 0.839l0.003 0.002c0.109-1.071 0.488-2.036 1.067-2.849l-0.012 0.018c0.128 0.706 0.201 1.52 0.201 2.35 0 0.037-0 0.075-0 0.112v-0.006c0 3.084-0.748 5.34-2.323 5.808 0.222 0.39 0.625 0.655 1.091 0.681l0.003 0c0.615-0.194 1.079-0.698 1.213-1.323l0.002-0.012c0.151 0.66 0.547 1.209 1.085 1.556l0.010 0.006c0.547-0.354 0.943-0.902 1.092-1.545l0.003-0.017c0.136 0.637 0.6 1.141 1.202 1.332l0.013 0.003c0.47-0.025 0.873-0.291 1.091-0.674l0.003-0.007c-1.575-0.441-2.323-2.67-2.323-5.808-0-0.032-0-0.069-0-0.107 0-0.83 0.073-1.643 0.213-2.433l-0.012 0.084c0.568 0.794 0.947 1.759 1.053 2.806l0.002 0.025c0.26-0.214 0.452-0.501 0.545-0.829l0.003-0.012c0.51 0.612 0.987 1.293 1.404 2.012l0.038 0.070c-0.574 0-1.268-0.133-1.482-0.133-0.032-0.006-0.069-0.010-0.107-0.010-0.332 0-0.601 0.269-0.601 0.601 0 0.008 0 0.016 0 0.024v-0.001c0.104 0.463 0.374 0.85 0.742 1.104l0.006 0.004c0.291-0.31 0.703-0.504 1.16-0.504 0.062 0 0.122 0.004 0.182 0.010l-0.007-0.001c0.092-0.008 0.199-0.013 0.307-0.013s0.215 0.005 0.321 0.014l-0.014-0.001c-0.007 0.078-0.010 0.169-0.010 0.26s0.004 0.182 0.011 0.272l-0.001-0.012c0 0.24 0 0.427 0 0.601 0.015 0.084 0.023 0.18 0.023 0.279 0 0.498-0.214 0.945-0.556 1.255l-0.001 0.001c0.203 0.166 0.462 0.27 0.745 0.28l0.002 0c0.788 0 0.908-0.574 0.908-1.816 0.003-0.040 0.004-0.087 0.004-0.133s-0.002-0.094-0.005-0.14l0 0.006c0.437 0.407 0.743 0.948 0.852 1.558l0.003 0.017c0.008 0.054 0.012 0.117 0.012 0.18s-0.004 0.126-0.013 0.187l0.001-0.007c0.581-0.045 1.043-0.502 1.094-1.077l0-0.005c-0.276-0.734-0.736-1.344-1.326-1.795l-0.010-0.007h0.107c0.094-0.026 0.203-0.041 0.315-0.041 0.479 0 0.894 0.275 1.097 0.675l0.003 0.007c0.336-0.286 0.548-0.709 0.548-1.181 0-0.007-0-0.014-0-0.021v0.001c0.006-0.031 0.010-0.067 0.010-0.103 0-0.31-0.251-0.561-0.561-0.561-0.036 0-0.072 0.004-0.106 0.010l0.004-0.001c-0.721 0.012-1.417 0.079-2.095 0.198l0.079-0.011c-0.631-0.819-1.22-1.741-1.727-2.714l-0.049-0.103c0.118 0.010 0.255 0.016 0.394 0.016s0.276-0.006 0.411-0.018l-0.018 0.001c0.020 0.001 0.044 0.002 0.068 0.002 0.157 0 0.308-0.025 0.449-0.071l-0.010 0.003c-1.846-1.372-3.088-3.466-3.309-5.855l-0.002-0.032c0.014-0.411 0.091-0.799 0.222-1.161l-0.008 0.026h0.134l4.566 7.303c0.619 1.292 1.916 2.169 3.418 2.169 0.207 0 0.411-0.017 0.609-0.049l-0.022 0.003c-1.054-0.839-1.942-1.833-2.642-2.955l-0.028-0.049-4.286-6.849 0.681-0.24 3.792 6.061c0.619 1.292 1.916 2.169 3.418 2.169 0.207 0 0.411-0.017 0.609-0.049l-0.022 0.003c-1.055-0.838-1.943-1.832-2.642-2.955l-0.028-0.049-3.578-5.861 0.614-0.36 3.017 4.82c0.615 1.293 1.91 2.17 3.411 2.17 0.21 0 0.416-0.017 0.617-0.050l-0.022 0.003c-1.056-0.838-1.944-1.832-2.642-2.955l-0.028-0.049-3.017-4.913c0.187-0.16 0.36-0.334 0.521-0.507l2.19 3.511c0.619 1.292 1.916 2.169 3.418 2.169 0.207 0 0.411-0.017 0.609-0.049l-0.022 0.003c-1.055-0.838-1.943-1.832-2.642-2.955l-0.028-0.049-2.483-4.072c0.121-0.2 0.242-0.437 0.346-0.683l0.014-0.038z"></path>
<path fill="#000" d="M47.384 29.29h-4.673v-26.702h4.673v26.702z"></path>
<path fill="#f00" d="M47.384 55.992h-4.673v-26.702h4.673v26.702z"></path>
<path fill="#fc0" d="M47.384 82.694h-4.673v-26.702h4.673v26.702z"></path>
</svg>
