<?xml version="1.0" encoding="UTF-8" standalone="no"?>
<!DOCTYPE svg PUBLIC "-//W3C//DTD SVG 1.1//EN" "http://www.w3.org/Graphics/SVG/1.1/DTD/svg11.dtd">
<svg width="100%" height="100%" viewBox="0 0 3367 1242" version="1.1" xmlns="http://www.w3.org/2000/svg" xmlns:xlink="http://www.w3.org/1999/xlink" xml:space="preserve" xmlns:serif="http://www.serif.com/" style="fill-rule:evenodd;clip-rule:evenodd;stroke-linejoin:round;stroke-miterlimit:2;">
    <g transform="matrix(4.16667,0,0,4.16667,0,0)">
        <rect x="0.055" y="0" width="807.874" height="297.638" style="fill:rgb(255,221,0);fill-rule:nonzero;"/>
        <path d="M270.181,51.676L304.612,51.676L304.612,135.36L342.821,135.36L336.48,167.654L270.181,167.654L270.181,51.676Z" style="fill:rgb(237,27,41);fill-rule:nonzero;"/>
        <path d="M463.901,51.676L541.316,51.676L534.976,83.513L516.08,83.513L516.08,167.654L482.019,167.654L482.019,83.513L457.563,83.513L463.901,51.676Z" style="fill:rgb(237,27,41);fill-rule:nonzero;"/>
        <path d="M546.328,51.676L623.746,51.676L617.401,83.513L598.503,83.513L598.503,167.654L564.44,167.654L564.44,83.513L539.985,83.513L546.328,51.676Z" style="fill:rgb(237,27,41);fill-rule:nonzero;"/>
        <path d="M614.811,110.373C614.811,77.538 641.429,50.918 674.265,50.918C707.105,50.918 733.723,77.538 733.723,110.373C733.723,143.212 707.105,169.831 674.265,169.831C641.429,169.831 614.811,143.212 614.811,110.373ZM648.502,110.373C648.502,124.604 660.037,136.139 674.265,136.139C688.495,136.139 700.03,124.604 700.03,110.373C700.03,96.144 688.495,84.612 674.265,84.612C660.037,84.612 648.502,96.144 648.502,110.373Z" style="fill:rgb(237,27,41);fill-rule:nonzero;"/>
        <path d="M340.519,110.373C340.519,77.538 367.139,50.918 399.976,50.918C432.811,50.918 459.431,77.538 459.431,110.373C459.431,143.212 432.811,169.831 399.976,169.831C367.139,169.831 340.519,143.212 340.519,110.373ZM374.213,110.373C374.213,124.604 385.745,136.139 399.976,136.139C414.206,136.139 425.738,124.604 425.738,110.373C425.738,96.144 414.206,84.612 399.976,84.612C385.745,84.612 374.213,96.144 374.213,110.373Z" style="fill:rgb(237,27,41);fill-rule:nonzero;"/>
        <path d="M172.211,113.083C181.622,94.579 195.228,77.194 211.358,67.954C221.779,61.984 233.283,64.831 236.184,79.364C238.391,90.418 238.061,98.879 230.627,103.759C218.029,112.032 195.419,114.687 172.211,113.083Z" style="fill:rgb(237,27,41);fill-rule:nonzero;"/>
        <path d="M165.11,112.463C138.615,109.661 112.589,101.498 100.985,89.987C95.561,84.606 97.533,77.477 100.775,72.376C112.484,53.946 143.245,38.126 168.462,35.39C176.532,34.514 181.647,36.551 182.046,45.596C182.86,63.969 177.473,89.145 165.11,112.463Z" style="fill:rgb(237,27,41);fill-rule:nonzero;"/>
        <path d="M161.958,118.092C146.828,143.825 122.86,166.343 88.954,173.449C70.102,177.399 64.206,164.187 64.261,149.674C64.324,133.266 67.906,119.856 93.183,116.133C109.081,113.792 136.78,114.577 161.958,118.092Z" style="fill:rgb(237,27,41);fill-rule:nonzero;"/>
        <path d="M169.266,119.204C189.441,122.53 206.963,127.672 213.872,134.407C218.805,139.216 218.359,143.808 214.611,149.098C205.316,162.221 181.476,172.581 167.526,174.095C160.281,174.884 158.602,170.711 158.272,165.856C157.442,153.584 161.53,136.251 169.266,119.204Z" style="fill:rgb(237,27,41);fill-rule:nonzero;"/>
        <path d="M155.332,142.072C144.058,169.252 127.148,202.156 114.219,206.608L106.523,198.535C124.779,197.322 143.83,158.418 149.519,145.853L155.332,142.072Z" style="fill:rgb(237,27,41);fill-rule:nonzero;"/>
        <path d="M293.307,234.081C293.307,228.279 289.186,225.025 284.198,223.562L279.806,222.26C275.794,221.067 274.276,219.549 274.276,216.893C274.276,213.423 276.878,211.254 281.053,211.254C284.144,211.254 286.475,212.067 289.945,214.182L292.277,210.496C288.969,208.164 284.957,206.97 280.836,206.97C273.463,206.97 268.474,211.362 268.474,217.814C268.474,223.128 271.673,225.839 277.312,227.465L281.216,228.604C285.391,229.797 287.397,231.911 287.397,234.948C287.397,238.96 284.198,241.455 279.318,241.455C275.577,241.455 272.487,240.37 269.234,238.363L267.173,242.376C270.806,244.599 274.927,245.683 279.21,245.683C289.024,245.683 293.307,239.286 293.307,234.081ZM321.175,242.755C319.061,241.455 318.952,239.936 318.952,236.195C318.952,232.237 319.169,228.062 319.169,226.11C319.169,223.454 319.061,222.531 318.627,221.339C317.597,218.465 314.723,217.001 310.765,217.001C305.506,217.001 302.036,219.061 299.379,220.58L301.656,224.158C303.879,222.477 307.132,221.067 310.006,221.067C313.801,221.067 314.235,223.236 314.235,226.435L314.235,228.224C313.53,228.17 312.988,228.17 312.337,228.17C303.554,228.17 298.511,231.532 298.511,237.821C298.511,243.026 301.873,245.792 307.295,245.792C312.012,245.792 314.289,243.081 314.994,242.213C315.645,244.111 316.946,245.466 318.627,246.117L321.175,242.755ZM314.127,231.64L313.964,238.581C312.717,240.75 310.548,242.159 308.271,242.159C305.506,242.159 303.988,240.424 303.988,237.442C303.988,235.652 304.367,234.676 305.397,233.484C306.482,232.237 308.759,231.532 312.5,231.532C312.934,231.532 313.367,231.586 314.127,231.64ZM345.681,241.997L343.242,238.906C341.614,240.75 339.609,241.725 337.603,241.725C336.03,241.725 334.675,241.129 333.698,240.098C332.288,238.581 331.53,236.086 331.53,232.292C331.53,228.55 331.909,225.839 332.831,223.996C333.753,222.152 335.542,221.067 337.603,221.067C339.338,221.067 340.585,221.61 342.374,223.182L344.977,219.766C342.915,217.868 340.53,216.893 337.603,216.893C334.946,216.893 332.56,217.868 330.554,219.658C327.952,221.989 325.999,225.513 325.999,231.64C325.999,235.761 326.813,238.906 328.602,241.455C330.499,244.165 333.428,245.52 337.331,245.52C340.802,245.52 343.079,244.544 345.681,241.997ZM372.628,244.978L372.628,225.623C372.628,223.182 372.519,222.477 372.085,221.23C371.273,218.79 368.452,217.164 365.254,217.164C363.247,217.164 361.35,217.706 359.344,219.007C358.26,219.712 357.663,220.146 356.47,221.23C356.579,219.82 356.633,218.573 356.633,217.597L356.633,211.525C356.633,208.868 356.415,206.862 356.036,205.235L350.993,206.266C351.374,207.838 351.591,209.627 351.591,211.959L351.591,244.978L356.633,244.978L356.633,225.459C358.747,223.019 361.513,221.501 363.844,221.501C365.145,221.501 366.338,221.989 366.825,222.531C367.368,223.128 367.747,224.429 367.747,226.327L367.747,244.978L372.628,244.978ZM399.303,236.628C399.303,233.05 397.243,230.176 392.254,229.039L388.73,228.224C385.857,227.574 384.881,226.489 384.881,224.539C384.881,222.098 386.724,220.471 389.598,220.471C391.766,220.471 393.773,221.176 396.267,222.423L397.946,218.899C395.724,217.597 392.689,216.676 389.381,216.676C383.525,216.676 379.567,220.146 379.567,225.134C379.567,229.146 381.898,231.857 386.182,232.67L389.489,233.321C392.634,233.918 394.044,235.273 394.044,237.604C394.044,240.261 391.984,241.997 389.001,241.997C385.965,241.997 382.874,240.75 380.273,239.286L378.484,242.864C381.627,244.708 385.314,245.737 388.622,245.737C394.965,245.737 399.303,242.05 399.303,236.628ZM426.195,232.454L426.195,231.586C426.141,225.351 425.273,222.314 422.888,219.876C420.99,217.923 418.55,216.947 415.514,216.947C412.151,216.947 409.495,218.14 407.327,220.688C404.995,223.454 404.073,226.489 404.073,231.206C404.073,240.098 408.682,245.575 416.219,245.575C419.743,245.575 422.942,244.436 425.599,242.105L423.701,239.123C421.749,240.857 419.58,241.725 417.033,241.725C414.43,241.725 412.207,240.695 410.797,238.526C409.984,237.225 409.658,235.436 409.658,233.104L409.658,232.454L426.195,232.454ZM420.99,228.767L409.712,228.767C409.712,223.834 411.61,220.742 415.405,220.742C417.14,220.742 418.442,221.555 419.309,222.64C420.394,223.996 420.99,226.164 420.99,228.767ZM453.792,244.978L453.792,224.429C453.792,223.182 453.575,221.989 453.142,221.013C452.166,218.682 449.617,217.164 446.744,217.164C445.063,217.164 443.274,217.597 441.701,218.519C440.563,219.17 439.75,219.876 438.177,221.176C438.177,219.496 437.906,218.302 437.255,217.001L432.538,218.302C433.297,220.254 433.569,221.501 433.569,224.754L433.569,244.978L438.502,244.978L438.502,224.863C440.346,222.911 443.274,221.393 445.226,221.393C446.473,221.393 447.45,221.772 447.992,222.477C448.641,223.345 448.858,224.212 448.858,226.652L448.858,244.978L453.792,244.978ZM472.063,232.779L472.063,227.845L461.057,227.845L461.057,232.779L472.063,232.779ZM505.788,244.978L493.751,207.567L487.245,207.567L474.992,244.978L480.413,244.978L483.666,234.405L496.625,234.405L499.932,244.978L505.788,244.978ZM495.485,230.068L484.967,230.068C485.618,228.279 489.576,214.886 490.118,212.772L490.444,212.772C490.932,214.941 494.835,228.334 495.485,230.068ZM530.456,244.978L530.456,224.429C530.456,223.182 530.241,221.989 529.806,221.013C528.83,218.682 526.282,217.164 523.409,217.164C521.727,217.164 519.938,217.597 518.366,218.519C517.227,219.17 516.414,219.876 514.841,221.176C514.841,219.496 514.571,218.302 513.92,217.001L509.202,218.302C509.962,220.254 510.232,221.501 510.232,224.754L510.232,244.978L515.167,244.978L515.167,224.863C517.01,222.911 519.938,221.393 521.89,221.393C523.137,221.393 524.113,221.772 524.655,222.477C525.306,223.345 525.522,224.212 525.522,226.652L525.522,244.978L530.456,244.978ZM560.059,244.978L560.059,225.623C560.059,223.182 559.952,222.477 559.517,221.23C558.704,218.79 555.885,217.164 552.686,217.164C550.679,217.164 548.782,217.706 546.776,219.007C545.691,219.712 545.095,220.146 543.901,221.23C544.011,219.82 544.065,218.573 544.065,217.597L544.065,211.525C544.065,208.868 543.848,206.862 543.468,205.235L538.426,206.266C538.805,207.838 539.022,209.627 539.022,211.959L539.022,244.978L544.065,244.978L544.065,225.459C546.179,223.019 548.944,221.501 551.276,221.501C552.578,221.501 553.77,221.989 554.258,222.531C554.8,223.128 555.18,224.429 555.18,226.327L555.18,244.978L560.059,244.978ZM589.337,242.755C587.223,241.455 587.114,239.936 587.114,236.195C587.114,232.237 587.331,228.062 587.331,226.11C587.331,223.454 587.223,222.531 586.789,221.339C585.759,218.465 582.885,217.001 578.927,217.001C573.668,217.001 570.198,219.061 567.541,220.58L569.817,224.158C572.041,222.477 575.294,221.067 578.168,221.067C581.963,221.067 582.397,223.236 582.397,226.435L582.397,228.224C581.692,228.17 581.15,228.17 580.499,228.17C571.716,228.17 566.674,231.532 566.674,237.821C566.674,243.026 570.036,245.792 575.457,245.792C580.174,245.792 582.452,243.081 583.157,242.213C583.807,244.111 585.108,245.466 586.789,246.117L589.337,242.755ZM582.289,231.64L582.126,238.581C580.879,240.75 578.71,242.159 576.433,242.159C573.668,242.159 572.15,240.424 572.15,237.442C572.15,235.652 572.53,234.676 573.559,233.484C574.644,232.237 576.921,231.532 580.662,231.532C581.096,231.532 581.53,231.586 582.289,231.64ZM604.247,244.924L603.379,241.834C602.784,241.997 602.024,241.834 601.7,241.455C601.157,240.966 600.994,240.315 600.994,237.442L600.994,212.989C600.994,209.627 600.994,207.025 600.506,205.235L595.301,206.32C595.734,208.434 595.897,210.278 595.897,214.127L595.897,238.743C595.897,241.4 596.114,242.321 596.927,243.46C597.957,244.924 599.204,245.52 601.157,245.52C602.349,245.52 603.217,245.358 604.247,244.924ZM621.976,217.814L615.36,217.814C615.36,215.049 615.632,211.633 615.849,209.681L610.698,210.875C610.427,212.935 610.373,215.7 610.373,217.814L607.12,217.814L607.12,221.339L610.373,221.339L610.373,238.851C610.373,242.809 611.241,243.352 612.379,244.382C613.246,245.195 615.198,245.737 616.987,245.737C618.776,245.737 620.403,245.358 621.921,244.599L621.325,241.562C620.457,241.942 619.698,242.105 618.776,242.105C616.066,242.105 615.252,241.074 615.252,237.713L615.252,221.339L620.62,221.339L621.976,217.814Z" style="fill:rgb(237,27,41);fill-rule:nonzero;"/>
    </g>
</svg>
